/* XPM */
static char *_518bc87c9f64f78d180d90b11263bda7CDpzDMUFwVLwYEo[] = {
/* columns rows colors chars-per-pixel */
"50 50 246 2 ",
"   c None",
".  c #23242D",
"X  c #24242D",
"o  c #26262D",
"O  c #27262D",
"+  c #27262E",
"@  c #26272E",
"#  c #27272E",
"$  c #26262F",
"%  c #27272F",
"&  c #28262E",
"*  c #28272E",
"=  c #29272E",
"-  c #28272F",
";  c #29272F",
":  c #28282E",
">  c #29282E",
",  c #29282F",
"<  c #29292F",
"1  c #2A292E",
"2  c #2B292E",
"3  c #2B282F",
"4  c #2A292F",
"5  c #2B292F",
"6  c #2A2A2F",
"7  c #2B2A2F",
"8  c #2B2B2F",
"9  c #2C292F",
"0  c #2C2A2F",
"q  c #262F31",
"w  c #272F31",
"e  c #292830",
"r  c #2B2930",
"t  c #2B2A30",
"y  c #2C2930",
"u  c #2C2A30",
"i  c #2C2B30",
"p  c #2D2B30",
"a  c #2D2A31",
"s  c #2D2C31",
"d  c #2F2C30",
"f  c #2F2D32",
"g  c #312E33",
"h  c #332F32",
"j  c #322F33",
"k  c #342F33",
"l  c #2B3035",
"z  c #293634",
"x  c #2B3635",
"c  c #2C3737",
"v  c #2D3737",
"b  c #2D3936",
"n  c #2C3B37",
"m  c #2D3D38",
"M  c #2F3C38",
"N  c #2E3D39",
"B  c #2F3D39",
"V  c #2D3E38",
"C  c #373234",
"Z  c #373235",
"A  c #403837",
"S  c #433938",
"D  c #453C3B",
"F  c #483D3B",
"G  c #493E3B",
"H  c #4B3E3C",
"J  c #2F4038",
"K  c #304139",
"L  c #314139",
"P  c #30403B",
"I  c #32423B",
"U  c #32433C",
"Y  c #32443C",
"T  c #33453D",
"R  c #34473D",
"E  c #34493D",
"W  c #35493E",
"Q  c #354A3E",
"!  c #364A3F",
"~  c #364C3E",
"^  c #364C3F",
"/  c #374D3F",
"(  c #374342",
")  c #384342",
"_  c #394343",
"`  c #384441",
"'  c #384543",
"]  c #384C40",
"[  c #384F40",
"{  c #394F41",
"}  c #394F42",
"|  c #3C4846",
" . c #3E4B48",
".. c #395041",
"X. c #385141",
"o. c #3D5944",
"O. c #3F5A46",
"+. c #404F4A",
"@. c #554740",
"#. c #564740",
"$. c #584841",
"%. c #5B4B41",
"&. c #5C4B42",
"*. c #405C47",
"=. c #41504A",
"-. c #42514B",
";. c #46564E",
":. c #485951",
">. c #4A5C52",
",. c #4B5C53",
"<. c #4A5C54",
"1. c #604D44",
"2. c #634F45",
"3. c #635145",
"4. c #685549",
"5. c #6A5448",
"6. c #6A5548",
"7. c #6B5548",
"8. c #6B5749",
"9. c #6C5749",
"0. c #6E574A",
"q. c #725C4B",
"w. c #735C4B",
"e. c #765D4C",
"r. c #795F4D",
"t. c #426049",
"y. c #41634A",
"u. c #516559",
"i. c #556C5B",
"p. c #566C5B",
"a. c #4C7351",
"s. c #4D7351",
"d. c #517C56",
"f. c #527D56",
"g. c #7A614D",
"h. c #7B614E",
"j. c #587160",
"k. c #5A7160",
"l. c #5E7866",
"z. c #637F6A",
"x. c #806351",
"c. c #816450",
"v. c #826551",
"b. c #846751",
"n. c #846752",
"m. c #856752",
"M. c #866853",
"N. c #8F6F56",
"B. c #927157",
"V. c #957258",
"C. c #9B765A",
"Z. c #A57E5E",
"A. c #548358",
"S. c #558259",
"D. c #568359",
"F. c #558459",
"G. c #58885B",
"H. c #59895C",
"J. c #5C925F",
"K. c #5D9060",
"L. c #5F9663",
"P. c #5F9763",
"I. c #64816A",
"U. c #67836C",
"Y. c #619B64",
"T. c #629C64",
"R. c #6C8A72",
"E. c #6D8A72",
"W. c #6C8B72",
"Q. c #6B8E71",
"!. c #6D9172",
"~. c #77997C",
"^. c #7B9E7F",
"/. c #64A066",
"(. c #65A067",
"). c #67A468",
"_. c #67A569",
"`. c #69A86A",
"'. c #6AA96B",
"]. c #6AAA6B",
"[. c #6CAE6D",
"{. c #6DAF6E",
"}. c #6DB06D",
"|. c #6DB06E",
" X c #6EB16E",
".X c #6EB26E",
"XX c #6FB26F",
"oX c #70B470",
"OX c #70B570",
"+X c #AD8461",
"@X c #B18562",
"#X c #B18663",
"$X c #B28762",
"%X c #B28763",
"&X c #B68964",
"*X c #BC8D67",
"=X c #BE8E68",
"-X c #BF8F68",
";X c #C09168",
":X c #C4936A",
">X c #C5936B",
",X c #C6956B",
"<X c #C7956B",
"1X c #C8966C",
"2X c #C9976C",
"3X c #CB976C",
"4X c #D6A071",
"5X c #DBA272",
"6X c #DBA373",
"7X c #DFA674",
"8X c #E3A877",
"9X c #E4A976",
"0X c #E5AA77",
"qX c #E7AB78",
"wX c #E8AC78",
"eX c #E9AD78",
"rX c #E9AD79",
"tX c #EBAE79",
"yX c #EDAF7A",
"uX c #EEB07B",
"iX c #F0B27B",
"pX c #F3B37D",
"aX c #F4B47C",
"sX c #F5B57D",
"dX c #F6B67D",
"fX c #F7B67E",
"gX c #F7B77E",
"hX c #FAB87E",
"jX c #FBB97F",
"kX c #7BA080",
"lX c #7DA281",
"zX c #84AC87",
"xX c #87B08A",
"cX c #8CB78F",
"vX c #8DB990",
"bX c #8EB890",
"nX c #8FBC91",
"mX c #91BF94",
"MX c #93C095",
"NX c #97C699",
"BX c #98C79A",
"VX c #99C89A",
"CX c #9ACA9C",
"ZX c #9CCC9D",
"AX c #9DCD9E",
"SX c #A0D2A1",
/* pixels */
"                                                                                                    ",
"                                                                                                    ",
"                                                                                                    ",
"                                                                                                    ",
"                                                        m                         _   _             ",
"                                                      Q '.a.w ]                 lXBXkXCXl.          ",
"                                                      o.OXd.'.OXo.          <.-.E.SXSXSXVX(         ",
"                                                      z P.OXOXOXH.R       ,.SXSXzXSXSXSX;.          ",
"                                                      X.OXOXOXOXOXD.      u.SXSXSXSXSXSXvXl         ",
"                                                      / T.T.OXOXOXS.    -.BXSXSXSXSXSXSX^.          ",
"                                                        n XXOXOXOX[.K   I.SXSXSXSXSXSXU.            ",
"                                                        / XXOXOXOX).m ' MXSXSXSX~.xXSX:.            ",
"                                                          K Q Y.oXH.  k.SXSXSXSXcX' >.              ",
"                                                              ] oXy.+.ZXSXSXmXz.|                   ",
"                                                              Q XXb cXSXZXk.'                       ",
"                                              p . + d         U ] E.SXmX+.  B K                     ",
"                                          5 &.,XuXqX-X6.*     m !.SXE.v y.K._.XXS.A.U               ",
"                                        5 0.jXjXjXjXjXjX4XH + p.SXQ.X.oXOXOXOXOXOXOXH.O.            ",
"                                      5 $.gXjXjXjXjXjXjXjXgX4.' p.m K R ] T.OXOXOXOXOXOX]           ",
"                                      S iXjXjXjXjXjXjXjXjXjXjX4.:         ] OXOXOXOXOX'.w           ",
"                                    5 7XjXjXjXjXjXjXjXjXjXjXjXaXH         K [.XXT.OXoXd.a.          ",
"                                  5 &XjXjX,X+XjXjXjXjXjX3XjXjXjX5X*         Q b (.OXY.OX'.m         ",
"                                5 g.jXjXjXjX%X+XjXjXjXjX%X+XjXjXjX4.            / X.z o.Q           ",
"                                g aXjXjXjXjXjX+X,XjXjXjXjX<XjXjXjX=Xd                               ",
"                              5 N.+XjXjXjXjXjXjXjXjXjXjXjXjX,X:XjXwX+                               ",
"                            8 c.jX#X+XjXjXjXjXjXjXjXjXjXjXjXjXjXjXiX+                               ",
"                            C iXjXjX:XjXjXjXjXjXjXjXjXjXjXjXjXjXjX,Xd                               ",
"                          5 :XjXjXjXjX,X:XjXjXjXjXjXjXjXjXjXjXjXjX#.                                ",
"                        : 3.jXjXjXjXjXjXjXjXjXjXjXjX,X+XjXjXjXaX4.p                                 ",
"                        5 8XjXjXjXjXjXjXjXjXjXjXjXjXjX%X+XjXiX#.p                                   ",
"                      5 B.jX2XjXjXjXjXjXjXjXjXjXjXjXjXjX%XC.S e                                     ",
"                      C aXjX%X+XjXjXjXjXM.uXjXjXjXjXjXjX%X+                                         ",
"                    p #XjXjXjX>XjXjXjXjXuXr.wXjXjXjXiXe.5                                           ",
"                    D gXjXjXjXjX,X>XjXjXjXuXr.yXjX3XZ p                                             ",
"                  5 ,XjXjXjXjXjXjXjXjXjXjXjXuXe.h.e                                                 ",
"                  1.jXjXjXjXjXjXjXjXjXjXjXjX*Xk 5                                                   ",
"                * 5XjXjXjXm.yXjXjXjXjXjX9X4.5                                                       ",
"              e $.jXjXjXjXyXm.jXjXjXaXB.* +                                                         ",
"              + +X+XjXjXjXjXjXjXgX+Xk p                                                             ",
"            5 v.gX+X>XjXjXjXjX3XF p                                                                 ",
"            5 wXjXjXjXjXjX5X1.5                                                                     ",
"          0 v.jXjXjXjXqXe.+                                                                         ",
"          * yXjXjXwXh.* e                                                                           ",
"          e.jXwXv.5 p                                                                               ",
"          d q.e e                                                                                   ",
"                                                                                                    ",
"                                                                                                    ",
"                                                                                                    ",
"                                                                                                    ",
"                                                                                                    "
};
