/* XPM */
static char *_1a3d3f4e57d4525929ac4d235540b82ujYAA4DQHPkcLXaI[] = {
/* columns rows colors chars-per-pixel */
"50 50 195 2 ",
"   c None",
".  c #1F212B",
"X  c #27232D",
"o  c #27232E",
"O  c #28232E",
"+  c #29232E",
"@  c #2B232E",
"#  c #28242E",
"$  c #29242E",
"%  c #2B242E",
"&  c #2B252E",
"*  c #2A242F",
"=  c #2B242F",
"-  c #2B252F",
";  c #2C242E",
":  c #2D242E",
">  c #2C242F",
",  c #2C252F",
"<  c #2D252F",
"1  c #242630",
"2  c #2B2530",
"3  c #2C2530",
"4  c #2F2430",
"5  c #2F2630",
"6  c #2F2631",
"7  c #2C2932",
"8  c #2D2932",
"9  c #2E2833",
"0  c #2D2A33",
"q  c #2F2B34",
"w  c #312731",
"e  c #342731",
"r  c #362832",
"t  c #302C35",
"y  c #302D36",
"u  c #312D36",
"i  c #332E37",
"p  c #342E37",
"a  c #3B2833",
"s  c #3D2934",
"d  c #3D2935",
"f  c #343039",
"g  c #35313A",
"h  c #38323B",
"j  c #39353D",
"k  c #3C363D",
"l  c #442E39",
"z  c #472F3A",
"x  c #472F3B",
"c  c #492E3A",
"v  c #4A2E3B",
"b  c #51313C",
"n  c #52313D",
"m  c #58333E",
"M  c #5C343F",
"N  c #5D353F",
"B  c #3F3A42",
"V  c #403940",
"C  c #613441",
"Z  c #603541",
"A  c #623540",
"S  c #613640",
"D  c #683542",
"F  c #6F3844",
"G  c #6F3845",
"H  c #763B46",
"J  c #7E3B49",
"K  c #7D3C48",
"L  c #7E3C49",
"P  c #7F3C49",
"I  c #596B6F",
"U  c #5A6C70",
"Y  c #5D6E73",
"T  c #5A777D",
"R  c #736F6E",
"E  c #71716F",
"W  c #73706F",
"Q  c #737475",
"!  c #777776",
"~  c #777777",
"^  c #787674",
"/  c #767876",
"(  c #7D7A78",
")  c #7D7B79",
"_  c #7C7C7A",
"`  c #863E4B",
"'  c #8D3E4D",
"]  c #8D3F4D",
"[  c #95404F",
"{  c #94414F",
"}  c #944150",
"|  c #944250",
" . c #994452",
".. c #9D4452",
"X. c #A44554",
"o. c #AB4856",
"O. c #AE4858",
"+. c #B14A58",
"@. c #B34A59",
"#. c #B84B5B",
"$. c #BB4C5B",
"%. c #BD4D5C",
"&. c #C14E5D",
"*. c #C34E5D",
"=. c #C64F5F",
"-. c #CB5161",
";. c #D05262",
":. c #D25262",
">. c #D45463",
",. c #D75463",
"<. c #DA5565",
"1. c #DA5466",
"2. c #DE5666",
"3. c #DF5667",
"4. c #E05767",
"5. c #E35768",
"6. c #E55869",
"7. c #E65868",
"8. c #E75868",
"9. c #E75969",
"0. c #E9586A",
"q. c #EA596A",
"w. c #EB596A",
"e. c #EC5A6A",
"r. c #ED5A6B",
"t. c #ED5B6B",
"y. c #EF5A6B",
"u. c #EE5A6C",
"i. c #F05B6C",
"p. c #F15B6C",
"a. c #82807E",
"s. c #83807E",
"d. c #82817E",
"f. c #5D7D83",
"g. c #618389",
"h. c #78CDD4",
"j. c #858581",
"k. c #878581",
"l. c #888782",
"z. c #898884",
"x. c #888987",
"c. c #8D8C87",
"v. c #93938D",
"b. c #979590",
"n. c #969693",
"m. c #979694",
"M. c #999892",
"N. c #ABA9A0",
"B. c #C0BEB2",
"V. c #C0BFB2",
"C. c #C1BFB3",
"Z. c #C2C0B4",
"A. c #C4C2B6",
"S. c #C5C3B6",
"D. c #C5C4B6",
"F. c #C5C4B7",
"G. c #C7C5B9",
"H. c #C9C7B9",
"J. c #C9C7BA",
"K. c #CAC8BB",
"L. c #CBC9BB",
"P. c #CBCABC",
"I. c #CCCABD",
"U. c #CDCBBD",
"Y. c #CECCBE",
"T. c #D2D0C2",
"R. c #D3D1C2",
"E. c #D3D1C3",
"W. c #D3D2C3",
"Q. c #D4D2C4",
"!. c #D4D3C4",
"~. c #D5D3C5",
"^. c #D6D4C5",
"/. c #D5D4C6",
"(. c #D6D5C6",
"). c #D7D5C7",
"_. c #D7D6C7",
"`. c #D8D6C8",
"'. c #D8D7C9",
"]. c #D9D7C9",
"[. c #DAD8CB",
"{. c #E7E6D8",
"}. c #E9E8DA",
"|. c #EAEADB",
" X c #ECEBDD",
".X c #EEEDDE",
"XX c #EDECE0",
"oX c #EFEFE0",
"OX c #F1F0E2",
"+X c #F2F1E4",
"@X c #FCFBED",
"#X c #FDFCED",
"$X c #FDFCEE",
"%X c #FEFDEE",
"&X c #FEFDEF",
/* pixels */
"                                                                                                    ",
"                                                                                                    ",
"                                                                                                    ",
"                                                                                                    ",
"                                                                                                    ",
"                                                2 3                                                 ",
"                                            3 a O.O.d ,                                             ",
"                                        % r X.u.p.p.p.+.d +                                         ",
"                                    , w ..u.p.p.p.p.p.p.p.o.r 2                                     ",
"                                3 w | q.y.p.p.p.p.p.p.p.p.p.u.X.e :                                 ",
"                            , 4 ..q.p.p.p.p.p.#.l l +.p.p.p.p.p.e...4 w                             ",
"                        % : [ e.p.p.p.p.p.#.l V b.b.V x #.p.p.p.p.i.r.] , ,                         ",
"                    + o ` 7.p.p.p.p.p.*.b k c.U.Y.Y.U.M.B c $.p.i.p.p.p.q.[ , ,                     ",
"                % o ` 6.i.i.p.i.p.*.m g l.P.Y.`.OX+X[.Y.P.v.j v %.i.p.p.i.i.q.] % 2                 ",
"            , o K 5.p.p.i.i.i.-.Z f d.K.Y.)..X&X&X&X&X+X`.U.P.c.h n =.i.i.i.p.p.6.] + %             ",
"        + o K 4.p.p.p.p.i.-.N p j.K.Y.(..X&X&X&X&X&X&X&X&XOX`.U.K.j.p N -.i.i.i.i.u.5.J % 7         ",
"        . 3.i.i.p.p.p.;.A y d.J.Y.(. X$X&X&XU T T T T U &X&X&XOX[.Y.H.d.q S ;.p.p.p.p.p.3..         ",
"        . i.i.y.p.,.G q ^ S.Y.!.|.$X$X$X&X&Xf.h.h.h.h.f.&X&X$X$X$X.X(.Y.G.d.q A ;.p.p.p.p..         ",
"        . y.t.<.H 7 E S.Y.Q.|.$X&X&X$X&X&X&XY g.g.g.g.Y &X&X&X&X&X&X$X.XQ.Y.D._ 0 D >.p.p..         ",
"        . 3.{ h R C.U.R.|.$X&X&X&X&X&X&X$X$X$X$X$X&X&X&X&X&X&X&X&X&X&X&X$X.XQ.Y.F.) 2 H 1..         ",
"        . + . N.U.T.{.$X&X&X&X&X&X&X$X$X$X$X$X$X$X$X$X$X&X$X$X&X$X&X&X&X&X&X$X XR.Y.N.0 0 .         ",
"            . R.{.$X$XXX/ ! ! ! ~ ~ ! ! ~ ~ ~ / ~ ~ ~ / ~ ~ ~ ~ ! ! ! ! ~ / .X&X$X|.R..             ",
"            . $X&X&X&Xm.C.U.U.U.Y.U.U.U.Y.U.U.U.Y.U.U.U.U.U.Y.Y.U.U.U.U.U.C.m.&X$X&X@X.             ",
"            . &X&X&X$Xx.U.U.U.U.Y.Y.U.U.Y.U.U.U.U.U.U.U.U.U.U.Y.U.U.U.U.U.U.x.&X&X&X&X.             ",
"            . &X&X&X&Xx.Y.U.U.U.U.U.U.U.U.U.U.U.U.U.U.U.U.U.U.U.U.U.U.U.U.U.x.&X&X&X$X.             ",
"            . &X&X&X&XQ E E E E E E E E E E E E E E E E E E N.N.E E _ U.l.U.x.$X&X&X$X.             ",
"            . &X&X&X$Xx.U.U.U.U.U.U.U.U.U.U.U.U.U.U.U.U.U.U.U.U.U.U.U.U.Y.Y.x.$X&X&X&XX             ",
"            . &X&X&X&Xx.U.U.U.U.U.U.U.U.U.U.U.U.U.U.U.U.U.U.U.U.U.U.U.U.Y.K.x.$X&X&X$X.             ",
"            . &X&X&X&Xx.U.U.U.U.U.U.U.U.U.U.U.U.U.U.U.U.U.U.U.U.U.U.U.U.P.P.x.&X&X&X&X.             ",
"            . &X&X&X&X! E E E E E E E E E E E E E E E E E E E E E E E E Q E Q &X&X&X&X.             ",
"            . &X$X&X$Xx.U.U.U.U.U.U.U.U.U.U.U.U.U.U.U.U.U.U.U.U.U.U.U.U.K.Y.x.&X&X&X&X.             ",
"            . &X$X$X$Xx.U.U.U.U.U.U.U.U.U.U.U.U.U.U.U.U.U.U.U.U.U.U.U.U.U.Y.x.&X&X&X&X.             ",
"            . &X&X&X&Xx.T.P.P.U.U.U.U.U.U.U.U.U.U.U.U.U.U.U.U.U.U.U.U.U.Y.Y.x.$X$X$X$X.             ",
"            . &X&X&X&XQ E E E Q N.N.E E E E E E E E E E E E E E E E E E E E Q $X&X&X$X.             ",
"            . &X&X&X&Xx.U.U.P.U.U.U.U.U.U.U.U.U.U.U.U.U.U.U.U.U.U.U.U.U.Y.P.x.$X&X&X&X.             ",
"            . &X&X&X&Xx.U.U.U.U.U.U.U.U.U.U.U.U.U.U.U.U.U.U.U.U.U.U.U.U.Y.Y.x.$X&X&X&XX             ",
"            . &X&X&X$Xx.U.U.U.U.U.U.U.U.Y.K.U.U.U.U.U.U.U.U.U.U.U.U.U.U.U.U.x.$X&X&X&X.             ",
"            . &X&X&X$X! E E E E E E E E E E R Q E E E E E E E E E E E E E E ! $X&X&X&X.             ",
"            . &X&X&X$Xx.U.U.U.U.U.U.U.U.Y.K.U.U.U.U.U.U.U.U.U.U.U.U.U.U.U.U.x.$X&X&X&X.             ",
"            . &X&X&X$Xx.U.U.U.U.U.U.U.U.Y.Y.U.N.E E N.U.U.U.U.U.U.U.U.U.U.U.x.$X&X&X&X.             ",
"            . &X&X&X&Xx.U.U.U.U.U.U.U.U.U.U.U.U.U.U.U.U.U.U.U.U.U.U.U.Y.Y.Y.x.&X&X&X&X.             ",
"            1 . . . . . . . . . . . . . . . . . . . . . . . . . . . . . . . . . . . . 1             ",
"                                                                                                    ",
"                                                                                                    ",
"                                                                                                    ",
"                                                                                                    ",
"                                                                                                    ",
"                                                                                                    ",
"                                                                                                    ",
"                                                                                                    "
};
