/* XPM */
static char *_92efb02342c4512a898c79a52fa190f4JjqrfV9LUCoxwCy[] = {
/* columns rows colors chars-per-pixel */
"50 50 132 2 ",
"   c None",
".  c #1F212B",
"X  c #20222B",
"o  c #23232B",
"O  c #24242B",
"+  c #20222C",
"@  c #21232C",
"#  c #23232C",
"$  c #24242C",
"%  c #25242C",
"&  c #24242D",
"*  c #26252C",
"=  c #24262C",
"-  c #26262C",
";  c #29252C",
":  c #28252D",
">  c #29252D",
",  c #29272C",
"<  c #28272D",
"1  c #2B262C",
"2  c #2A272D",
"3  c #2A272E",
"4  c #2A282C",
"5  c #2A282D",
"6  c #2A282E",
"7  c #332C2F",
"8  c #342C2F",
"9  c #252730",
"0  c #2C2C34",
"q  c #2C2E36",
"w  c #2D2F37",
"e  c #3E3331",
"r  c #3F3331",
"t  c #33363C",
"y  c #33363D",
"u  c #423032",
"i  c #433532",
"p  c #443532",
"a  c #463334",
"s  c #493037",
"d  c #4E3B34",
"f  c #493038",
"g  c #533F34",
"h  c #523E35",
"j  c #533E35",
"k  c #533F35",
"l  c #533F36",
"z  c #543F35",
"x  c #5B353B",
"c  c #5D363D",
"v  c #614737",
"b  c #604638",
"n  c #6D463D",
"m  c #684A39",
"M  c #694B39",
"N  c #6A4B39",
"B  c #6A4C3A",
"V  c #6B4C3A",
"C  c #6F4F3A",
"Z  c #6E4E3B",
"A  c #704E3A",
"S  c #704F3A",
"D  c #704F3B",
"F  c #73513B",
"G  c #74513B",
"H  c #76523B",
"J  c #74513C",
"K  c #7B553C",
"L  c #7F583E",
"P  c #3A3C42",
"I  c #3D3D44",
"U  c #6C3B41",
"Y  c #6E3A42",
"T  c #793E45",
"R  c #7C3F46",
"E  c #7E3E47",
"W  c #555151",
"Q  c #525357",
"!  c #535458",
"~  c #7A4045",
"^  c #6C6D6E",
"/  c #7E756E",
"(  c #737475",
")  c #757777",
"_  c #81593D",
"`  c #81593E",
"'  c #82593E",
"]  c #83593E",
"[  c #865C3F",
"{  c #885C3F",
"}  c #8C5E3F",
"|  c #823D49",
" . c #833D49",
".. c #803E48",
"X. c #8D5F40",
"o. c #8E6040",
"O. c #8F6140",
"+. c #926341",
"@. c #936341",
"#. c #976441",
"$. c #946442",
"%. c #976542",
"&. c #9A6642",
"*. c #9C6843",
"=. c #9E6843",
"-. c #A16A43",
";. c #A06A44",
":. c #A36C45",
">. c #A46C44",
",. c #A56D44",
"<. c #A76D45",
"1. c #A66E45",
"2. c #A76E45",
"3. c #A96F45",
"4. c #AB7046",
"5. c #AC7146",
"6. c #AD7146",
"7. c #AE7247",
"8. c #AF7347",
"9. c #B17347",
"0. c #B27447",
"q. c #B67647",
"w. c #B57648",
"e. c #B67748",
"r. c #B77748",
"t. c #F15B6C",
"y. c #888887",
"u. c #9D9084",
"i. c #969794",
"p. c #BCAC99",
"a. c #FEFCEE",
"s. c #FEFDEF",
/* pixels */
"                                                                                                    ",
"                                                                                                    ",
"                                                                                                    ",
"                                                                                                    ",
"                                                                                                    ",
"                                                                                                    ",
"                                          + . . . . . . +                                           ",
"                                            y s.s.s.s.y                                             ",
"                                            ! s.s.s.s.Q                                             ",
"                                            ^ s.s.s.s.^                                             ",
"                                            + y.y.i.s.9                                             ",
"                                            w s.s.s.s.w                                             ",
"                                            I s.a.a.s.I                                             ",
"                                            ) s.s.s.s.(                                             ",
"                                          P ! $./ / p.u.w                                           ",
"                                          9 8.r.q.q.q.7.o                                           ",
"                                          z r.r.r.r.e.e.z                                           ",
"                                        1 X.r.2.r.r.3.e.X.;                                         ",
"                                        - q.q.M r.r.M e.e.*                                         ",
"                                        d e.+.X.r.r.} @.e.d                                         ",
"                                      0 K r.Z 8.r.r.9.Z r.K ;                                       ",
"                                      9 >.r.m q.r.r.r.M r.2.*                                       ",
"                                      9 R R R R ~ ~ ~ ~ ~ ~ ;                                       ",
"                                      f t.t.t.t.t.t.t.t.t.t.f                                       ",
"                                      c t.t.t.t.t.t.t.t.t.t.x                                       ",
"                                      U t.t.t.t.t.t.t.t.t.t.U                                       ",
"                                      E t.t.t.t.t.t.t.t.t.t.R                                       ",
"                                      | t.t.t.t.t.t.t.t.t.t.E                                       ",
"                                      | t.t.t.t.t.t.t.t.t.t.|                                       ",
"                                      u n n a n n n n a n n u                                       ",
"                                      z r.r.Z r.r.r.e.M r.r.h                                       ",
"                                      e r.e.M r.r.r.q.Z r.e.e                                       ",
"                                      * r.r.B e.e.e.r.*.e.e.5                                       ",
"                                      * 5.r.F 8.e.e.e._ e.7.o                                       ",
"                                      ; $.r.+.%.e.e.1.5.r.+.5                                       ",
"                                      5 ~ r.,.L e.e.[ ,.r.' ;                                       ",
"                                      * G r.7.J e.r.#.q.e.H $                                       ",
"                                      # S e.q.*.r.r.C 0.e.C $                                       ",
"                                      ; ' e.=.{ r.r.[ *.e._ 4                                       ",
"                                      # 3.r.>.7.r.r.4.H e.1.-                                       ",
"                                      8 r.r.J r.r.r.r.M r.r.8                                       ",
"                                      h r.r.M r.r.r.r.M r.r.h                                       ",
"                                      v r.e.M r.r.r.r.M r.r.b                                       ",
"                                      5 S S p S S S S p S S 5                                       ",
"                                        . o . o + o . o o .                                         ",
"                                                                                                    ",
"                                                                                                    ",
"                                                                                                    ",
"                                                                                                    ",
"                                                                                                    "
};
