/* XPM */
static char *a749848b212c4e59b2db7e869d66f46colp77zqEOqHcZpbY[] = {
/* columns rows colors chars-per-pixel */
"50 50 24 1 ",
"  c None",
". c #120A07",
"X c #1F1613",
"o c #18161D",
"O c #26241C",
"+ c #34321A",
"@ c #371A23",
"# c #3F2124",
"$ c #4C331E",
"% c #553F1A",
"& c #763414",
"* c #595818",
"= c #716F17",
"- c #554D20",
"; c #504128",
": c #52523A",
"> c #625B3E",
", c #7E7D4B",
"< c #884105",
"1 c #9A6105",
"2 c #D6D5BD",
"3 c #D2D2D2",
"4 c gray94",
"5 c #F9F9F9",
/* pixels */
"                                                  ",
"                                                  ",
"                                                  ",
"                                                  ",
"                                        &         ",
"                                       &&         ",
"                                      &&          ",
"                         .===        &&           ",
"                        .X@***=     &&            ",
"                       .X$$#****   &&             ",
"                      .X.$5#;***  &&              ",
"                      . .$$$.-*; <&               ",
"                      .. #$$X-* &&                ",
"                       ..#$#.-;1&                 ",
"                      . . @@;; &                  ",
"                        %@@-***                   ",
"                       %%%$#,,$$                  ",
"                       $$##>,>#$                  ",
"                       >:::,>,##$                 ",
"                      $#:>,,,> @$                 ",
"                      $# ,,>>> @$$                ",
"                      $ 2::::   #$                ",
"                     $#22+Ooo   #$$               ",
"                     $#2OooOo+   #$               ",
"                    $#2*;-*-***  @@$              ",
"                    $# ***-**-*-  @$              ",
"                   $#  *------;o-  @$             ",
"                  $## ------;;;o- # @             ",
"                  $$# ;;;;;;;;oo-    #            ",
"                 22   oooooooOOO                  ",
"                22    oooooooOOOO                 ",
"               1&    oooOOOoooOOO                 ",
"              <&     ooOOOoooooOOO                ",
"          43  &      ooOOOo oooOOO                ",
"          433<&      ooOOOo ooooOOO               ",
"          4333       ooOOOo  oooOOO               ",
"         43<334      oooOoo  ooooOO               ",
"         43334        oooo    oooOO               ",
"         4344          @@@    ooooo               ",
"         44             $#      @@@               ",
"                        $#      @$$               ",
"                        $        #$               ",
"                        $        #$               ",
"                       $#         #               ",
"                       @#         #$              ",
"                      @@@         @@              ",
"                                                  ",
"                                                  ",
"                                                  ",
"                                                  "
};
