/* XPM */
static char *result[] = {
/* columns rows colors chars-per-pixel */
"42 42 26 1 ",
"  c #35080E",
". c #291C11",
"X c #2C2121",
"o c #392D28",
"O c #503A2A",
"+ c #673D2B",
"@ c #5F4820",
"# c #6A4E39",
"$ c #3F3F4D",
"% c #575B69",
"& c #6D6966",
"* c gray44",
"= c #832835",
"- c #A16300",
"; c #B37200",
": c #8F4D56",
"> c #FFA200",
", c #BF9040",
"< c #FFC869",
"1 c #95B6BC",
"2 c gray65",
"3 c #CADFDE",
"4 c #D7D7D7",
"5 c #EEF2F2",
"6 c #FEFEFE",
"7 c None",
/* pixels */
"777777777777777777777777777777777777777777",
"777777777777777777777777777777777777777777",
"777777777777777777777777777777777777777777",
"777777777777777777777777777777777777777777",
"7777777777777777777==:77777777777777777777",
"777777777777777777=:::77777777777777777777",
"777777777777777777=%3367777777777777777777",
"77777777777777777=%3...7777777777777777777",
"77777777777777777=%31367777777777777777777",
"777777777777777:==.11367777777777777777777",
"77777777777777==:=..1367777777777777777777",
"7777777777777=:===1O.==7777777777777777777",
"7777777777777:XX$$:=11==777777777777777777",
"7777777777777:X$$=3===3=777777777777777777",
"7777777777777: $$=3<:<3%777777777777777777",
"7777777777777: 1 5==<5<%777777777777777777",
"7777777777777: 1  ;<:<:3---777777777777777",
"7777777777777: 1  ==<:<3@@@,77777777777777",
"7777777777777: $  ;<:<#3@@@@,7777777777777",
"7777777777777: $  Xooo#%%@@@,7777777777777",
"7777777777777: $  X=X:#%%3@@,7777777777777",
"7777777777777:X3+ooooo##@3@@,7777777777777",
"7777777777777: 3+=;=<:<:@@@@,7777777777777",
"7777777777777: ++*;=<:<:@@@@,7777777777777",
"7777777777777:  =3*=<:<:@@@,77777777777777",
"7777777777777:  ==3*<:<:---777777777777777",
"7777777777777:  ==;3*:<:777777777777777777",
"7777777777777:  ==;=3*<:777777777777777777",
"7777777777777  ===> >3*:777777777777777777",
"777777777777:  ===    3*777777777777777777",
"77777777777:  ==24777 :3*77777777777777777",
"777777777777==7.277777 2777777777777777777",
"777777777777777.277777.2777777777777777777",
"777777777777777&277777&2777777777777777777",
"77777777777777&7777777&7777777777777777777",
"77777777777777&7777777&7777777777777777777",
"77777777777777&7777777&7777777777777777777",
"77777777777777O&777777O&777777777777777777",
"777777777777777777777777777777777777777777",
"777777777777777777777777777777777777777777",
"777777777777777777777777777777777777777777",
"777777777777777777777777777777777777777777"
};
