/* XPM */
static char *result[] = {
/* columns rows colors chars-per-pixel */
"42 42 25 1 ",
"  c #35080E",
". c #291C11",
"X c #2C2121",
"o c #392D28",
"O c #503A2A",
"+ c #673D2B",
"@ c #5F4820",
"# c #6A4E39",
"$ c #3F3F4D",
"% c #575B69",
"& c #6D6966",
"* c gray44",
"= c #832835",
"- c #A16300",
"; c #B37200",
": c #8F4D56",
"> c #FFA200",
", c #BF9040",
"< c #FFC869",
"1 c #95B6BC",
"2 c gray65",
"3 c #CADFDE",
"4 c #D7D7D7",
"5 c #FEFEFE",
"6 c None",
/* pixels */
"666666666666666666666666666666666666666666",
"666666666666666666666666666666666666666666",
"666666666666666666666666666666666666666666",
"666666666666666666666666666666666666666666",
"6666666666666666666==:66666666666666666666",
"666666666666666666=:::66666666666666666666",
"666666666666666666=%3356666666666666666666",
"66666666666666666=%3...6666666666666666666",
"66666666666666666=%31356666666666666666666",
"66666666666666666=.11356666666666666666666",
"666666666666666:=1..1356666666666666666666",
"66666666666666==:=1..==6666666666666666666",
"6666666666666=:==:=O11==666666666666666666",
"6666666666666:=XXX3===3=666666666666666666",
"6666666666666:XX$;3:<:3%666666666666666666",
"6666666666666: $$5;<:5:%666666666666666666",
"6666666666666: $$;=:<:<%666666666666666666",
"6666666666666: 1  ;<:<:3---666666666666666",
"6666666666666: 1  =:<:<3@@@,66666666666666",
"6666666666666: $  Xooo#%@@@@,6666666666666",
"6666666666666: $  X=X:#%%@@@,6666666666666",
"6666666666666: $ ooooo##%3@@,6666666666666",
"6666666666666:X3+=;=<:<:@3@@,6666666666666",
"6666666666666: 3+=;=<:<:@@@@,6666666666666",
"6666666666666: ++*;=<:<:@@@@,6666666666666",
"6666666666666:  =3*=<:<:@@@,66666666666666",
"6666666666666:  ==3*<:<:---666666666666666",
"6666666666666:  ==;3*:<:666666666666666666",
"6666666666666: ===> 3*<:666666666666666666",
"6666666666666: ===   3*:666666666666666666",
"666666666666: ==24    3*666666666666666666",
"666666666666: ==2 666 :3*66666666666666666",
"666666666666:6=.266666.2666666666666666666",
"666666666666666&266666&2666666666666666666",
"66666666666666&6666666&6666666666666666666",
"66666666666666&6666666&6666666666666666666",
"66666666666666&6666666&6666666666666666666",
"66666666666666O&666666O&666666666666666666",
"666666666666666666666666666666666666666666",
"666666666666666666666666666666666666666666",
"666666666666666666666666666666666666666666",
"666666666666666666666666666666666666666666"
};
