/* XPM */
static char *e0415371cc85465de6ad64dce0cdace8Ax9GwaR7iqWZCdVL[] = {
/* columns rows colors chars-per-pixel */
"35 35 9 1 ",
"  c None",
". c #2A6B25",
"X c #AC5A55",
"o c #448033",
"O c #5F9645",
"+ c #82B058",
"@ c #B0D477",
"# c #D3E88E",
"$ c #FFFF9C",
/* pixels */
"                                   ",
"                                   ",
"                                   ",
"                                   ",
"            OOO      OOOOO         ",
"           O@@#OOO OO@##$O         ",
"           O@+@#@#O#@@@@O          ",
"          O++@@@#@##@@+OOO         ",
"         O#$@++@@@#@@@@@#+OO       ",
"     OOOO+##$@@@@####@$$@++O       ",
"     O@@+@@#@@#####$$##@@@+@OOO    ",
"     O@+@##@@#######$#####@@@@O    ",
"     Oo@@@###$###########+O@@+O    ",
"     o+@@###@$$##@###$@@#$+OOo     ",
"   oo#@@+#++#@##@@@#$@$@@++@@#o    ",
"   o#@@@++@###@@@#@@@##$@@@@@@#o   ",
"  o#@@@+#@@##+@@###@@@##@@#+@@@#o  ",
"  o##@+#@@@++@@@##$@@@@@@@@#+@##o  ",
"   ooo@@@@+#@@+@+#$@+@@#+@@@@ooo   ",
"   o+O#@@O#@@+@@@++@@+@@#O@@#O+o   ",
"  o@+O##Oo@@#+#@@+@@#+@@@oO##O+@o  ",
"  o#@+OOo@@#@+##o@o##+#@@@oOO+@#o  ",
"  o##@++o##@o+oo@@@Oo+o###o++@##o  ",
"   o.oO@@ooo+@@+#@#+@@+ooo@@Oooo   ",
"    .oo#@@@O+@@@+#+@@@+O@@@#oo.    ",
"    .oO##@O+@#@@O++@@#@+O@##Oo.    ",
"     .oooo++#@@@O++@@@#++oooo.     ",
"      .o++O+##@O+++O@##+O++o.      ",
"      .ooooOooo++OO+OooOoooo.      ",
"       .oo.oooOOOOOoOOoo.oo.       ",
"        .. .ooOooOooooo. ..        ",
"            .ooXoooXoo.            ",
"                                   ",
"                                   ",
"                                   "
};
