/* XPM */
static char *_1d7437fa62b48ba8f7adb0d206ecbacnsdSfMhYeTvU6Bz8[] = {
/* columns rows colors chars-per-pixel */
"50 50 31 1 ",
"  c None",
". c #520A37",
"X c #5B0B3D",
"o c #6B2725",
"O c #2A6B25",
"+ c #37682A",
"@ c #4D7A38",
"# c #90302D",
"$ c #A83632",
"% c #853941",
"& c #AC5A55",
"* c #BF645E",
"= c #BF5065",
"- c #D65B53",
"; c #F1685F",
": c #CC6A63",
"> c #D46F68",
", c #D67C6D",
"< c #448033",
"1 c #5F9645",
"2 c #6A8F48",
"3 c #82B058",
"4 c #8FAC61",
"5 c #ABBC73",
"6 c #DF8474",
"7 c #B0D477",
"8 c #CECE7F",
"9 c #EB9B81",
"0 c #F8958E",
"q c #D3E88E",
"w c #FFFF9C",
/* pixels */
"                                                  ",
"                                                  ",
"                                                  ",
"                                                  ",
"                    111      11111                ",
"                   177q111 117qqw1                ",
"                   1737q7q1q77771                 ",
"                  133777q7qq773111                ",
"                 1qw733777q77777q311              ",
"             1111#$qw7777qqqq7ww7331              ",
"             177o;0$77qqqqqwwqq777#$111           ",
"             172o-;77qqqqqqqwqqqqo;0$71           ",
"             1<447qqqwqqqqqqqqqqq31;#21           ",
"             <377qqq7wwqq7qqqw77qw311<            ",
"           <<q773q33q7q#$77qw7w773377q<           ",
"           <q777337qqqo;0$777qqw777777q<          ",
"          <q7773q77qq2o-;#5777qq77q3777q<         ",
"          <qq73q7773344oo5877777777q37qq<         ",
"           <<<77773q772425w7377q37777<<<          ",
"           <31q771q7737773377377q177q13<          ",
"          <731qq1<77q3q77377q3777<1qq137<         ",
"          <q7311<77q73qq<7<qq3q777<1137q<         ",
"          <qq733<qq7<3<<7771o;<qqq<337qq<         ",
"           <O<177<<<$773q7q2o-;<<<771<<<          ",
"            O<<q4o-;#4773q344oo@477q<<O           ",
"            O<1q54oo45771337454217qq1<O           ",
"             O<<<+225777133777q33<<<<O            ",
"              O<3313qq7133317qq3133<O             ",
"              O<<<<1<<<331131<<1<<<<O             ",
"               O<<O<<<11111<11<<O<<O              ",
"                OO O<<1<<1<<<<<O OO               ",
"                    O<<&<<<&<<O                   ",
"                     O.*&&&*.O                    ",
"                      .>***>.                     ",
"                      X>>,69X                     ",
"                      %:,696%                     ",
"                      %6>696%                     ",
"                     %=66,,,6%                    ",
"                    %%=>,669=%%                   ",
"                   %6=>>,6>99==%                  ",
"                     %>,696>9%                    ",
"                    %99%>96%69%                   ",
"                   %66  >>> >>6                   ",
"                                                  ",
"                                                  ",
"                                                  ",
"                                                  ",
"                                                  ",
"                                                  ",
"                                                  "
};
