/* XPM */
static char *dd51e371452447cebb305c875754a669dgZHY9aN9cKEoDBw[] = {
/* columns rows colors chars-per-pixel */
"64 64 191 2 ",
"   c None",
".  c #190000",
"X  c #220105",
"o  c #2B050B",
"O  c #2D0A0F",
"+  c #2B0006",
"@  c #2E0E11",
"#  c #320F13",
"$  c #3A0C13",
"%  c #281210",
"&  c #351015",
"*  c #3A1216",
"=  c #3D1418",
"-  c #371C1D",
";  c #3B1B1D",
":  c #331518",
">  c #3E2222",
",  c #3E2824",
"<  c #430F17",
"1  c #5A0F18",
"2  c #43151A",
"3  c #4C151D",
"4  c #441A1D",
"5  c #4A181E",
"6  c #481017",
"7  c #54141D",
"8  c #50181F",
"9  c #5B1119",
"0  c #441D20",
"q  c #4E1A20",
"w  c #531C22",
"e  c #5B1D24",
"r  c #611D25",
"t  c #452928",
"y  c #492D2C",
"u  c #462726",
"i  c #532326",
"p  c #5E2027",
"a  c #522729",
"s  c #5D2229",
"d  c #5A2E2E",
"f  c #4C302D",
"g  c #58322E",
"h  c #4F3332",
"j  c #553934",
"k  c #5B3D35",
"l  c #5A3C39",
"z  c #602027",
"x  c #622128",
"c  c #652B2E",
"v  c #68292E",
"b  c #60312F",
"n  c #652F31",
"m  c #692E31",
"M  c #673836",
"N  c #713639",
"B  c #56453A",
"V  c #63443C",
"C  c #69463E",
"Z  c #634A3E",
"A  c #6C493F",
"S  c #72433E",
"D  c #5F5746",
"F  c #644941",
"G  c #6C4B47",
"H  c #754B43",
"J  c #794E46",
"K  c #764F48",
"L  c #744740",
"P  c #635242",
"I  c #6B5346",
"U  c #6F544C",
"Y  c #6B5D4D",
"T  c #72534D",
"R  c #7C534A",
"E  c #7D5C4D",
"W  c #735D51",
"Q  c #7B5E55",
"!  c #705651",
"~  c #696451",
"^  c #7D635B",
"/  c #7D6857",
"(  c #7E795F",
")  c #7C7560",
"_  c #9E1322",
"`  c #FF001B",
"'  c #D91027",
"]  c #D6152A",
"[  c #E30C26",
"{  c #FF0326",
"}  c #FF0C2B",
"|  c #FF1932",
" . c #FF2139",
".. c #F32D3E",
"X. c #B53C40",
"o. c #ED3642",
"O. c #89594D",
"+. c #90574B",
"@. c #865B54",
"#. c #835350",
"$. c #8C635C",
"%. c #846C5C",
"&. c #886E5A",
"*. c #836654",
"=. c #90625C",
"-. c #86725B",
";. c #89755E",
":. c #8B785F",
">. c #AA6E5E",
",. c #826A62",
"<. c #8A7464",
"1. c #8D7A62",
"2. c #8D7869",
"3. c #917D65",
"4. c #937C6D",
"5. c #997768",
"6. c #927A70",
"7. c #BD776A",
"8. c #D14449",
"9. c #C35B55",
"0. c #DD5E5F",
"q. c #F2414E",
"w. c #E04B51",
"e. c #E65C60",
"r. c #D66D6B",
"t. c #D96968",
"y. c #D27E77",
"u. c #E2716F",
"i. c #8C856C",
"p. c #95836A",
"a. c #99866E",
"s. c #95846A",
"d. c #958072",
"f. c #9A8673",
"g. c #9D8A73",
"h. c #9F8A78",
"j. c #9F9178",
"k. c #96957A",
"l. c #A5826E",
"z. c #A28E76",
"x. c #A3877A",
"c. c #A18C7A",
"v. c #AB8E7E",
"b. c #A58376",
"n. c #A19277",
"m. c #A4927A",
"M. c #A9947E",
"N. c #AA997F",
"B. c #CC8A7E",
"V. c #A38C80",
"C. c #AA9481",
"Z. c #AD9A83",
"A. c #AF9B8C",
"S. c #A29682",
"D. c #B19D87",
"F. c #B29E8A",
"G. c #BC9A86",
"H. c #A1A283",
"J. c #B4A28B",
"K. c #B9A68F",
"L. c #B9A88F",
"P. c #B3A98F",
"I. c #BAA691",
"U. c #BDAB94",
"Y. c #BAAE9B",
"T. c #B7AA94",
"R. c #BFB096",
"E. c #BCB49A",
"W. c #B7B499",
"Q. c #C39D8B",
"!. c #C0AE97",
"~. c #C1AF98",
"^. c #C1B097",
"/. c #C3B29A",
"(. c #C8B79E",
"). c #C6BAA0",
"_. c #CABAA1",
"`. c #C8B3A2",
"'. c #CAC3AA",
"]. c #D9C6AF",
"[. c #D7C6AB",
"{. c #D4CAB3",
"}. c #DCD2BD",
"|. c #DBD0B6",
" X c #E0CEB6",
".X c #E1D0B7",
"XX c #E8D7BF",
"oX c #E2D3BA",
"OX c #E3DEC5",
"+X c #E9E5CD",
"@X c #F6E9CF",
/* pixels */
"                                                                                                                                ",
"                                              x x x x x x x x x x x x x x x x x x                                               ",
"                                              x x x x x x x x x x x x p x x x x x                                               ",
"                                    x x x x x x p x x z p x x x x z x x p x x z x x x x x x                                     ",
"                                  x x z x z z x x x x x x x x x x x x x x x x z x x x x x x x                                   ",
"                            x x z x x x z x x x x x x x x x x x x x x r x x x x x r x x x x x x                                 ",
"                          x x x x x x z x x x z x x x x x x x x x x x v x x x x x v x x x x x x x                               ",
"                        x x x z x z x x x z x z z x x x x x x x x x e p p p p p p e x x x x x x x x                             ",
"                    x x x x x x x x x x x x z z x x v x x v x v x e 5 = 2 2 2 2 = 2 q x x x x x x x x x                         ",
"                    x z p x z x x x x x x x v x x w 8 8 7 w 8 w w 5 & @ # # # & # # = w w e x x x x x x                         ",
"                    x x x x x x x x x x x x x z w 2 : * * * * * = & # # # # # # # # # * & = w p x x x x                         ",
"                    x x x x p x x x x x x i 3 5 2 * # @ # # @ O @ # # # # & & & & # # @ @ & = q 5 w p p                         ",
"                    x x x x x x x z p p w 2 : * * # @ # * * = & & & * * # # & # # # & * & & & # # 2 e p                         ",
"                        z x x x x p 2 2 2 # * 5 5 * # # 5 w p 5 = = w 5 & # # # # # 2 w 2 & @ @ # 2 e p                         ",
"                          x x z w 2 & @ @ # 2 w x 5 * O $ 7 z 7 3 5 q 2 # * 5 5 2 2 e x q & # # & 2 p p                         ",
"                            x e 2 & # # # @ 2 w x p 5 * : 4 i c p q 2 # * q w e e p x p q # # # & 2                             ",
"                                          # * 2 2 2 a C Z D Y A i < 3 3 2 2 = ; 2 0 5 5 = & #                                   ",
"                                            # O O ; Z -.5.>.>.*.g 2 5 p m z 9 9 6 @ @ & & &                                     ",
"                                                  P ( 5.9.....8.+.B u j #.X.] ] _                                               ",
"                                                  j.N.z.8.{ ` ..7.( B ~ l.w.} { [                                               ",
"                                                  /.W.Q.0.| } o.B.S.i.k.Q.e.| |  .                                              ",
"                                                  (.E.!.Q.r.r.y.Q.P.J.P.K.B.r.r.u.                                              ",
"                                                  U.!./.`.`.'.)._._.(.(._.)./.E.E.                                              ",
"                                              !.T.U.U.!.|.OX'.'..X.X).[.XX{.E.Y.W.                                              ",
"                                            U.U.^.U.d.2._.+XV.d.}.{.h.Y.+XY.2.x.^.!.                                            ",
"                                      U.U.U.U.U.(.U.W t 6.`.^ ! T.V.j ,.Y.^ y <././.!.                                          ",
"                                    U.U.U.U.U.U.(.U.W % - ^ x.h.^ y @ u l - > 2.(./.U.                                          ",
"                                    U.U.U.U.U.U.(.!.d.j . , T.OX,.@ . > h : ; 2././.U.                                          ",
"                                    U.U.U.U.U.U.!.U.U.h.f u A.@X/.F ; ^ A.! y <././.U.U.                                        ",
"                                  U.U.U.U.U.K.Z.Z.K._.^.4.%.F..X[.c.^ D.].V.^ h././.!.U.                                        ",
"                                U.U.U.U.U./.J.f.a.D./.!.T.U.U.U.E.U.U.U.^.U.T.U.T.K.K.U.U.                                      ",
"                              U.U.U.U.U.!./.J.a.s.J.U.!././.U.K.U.~./.!.T.~.`.~.D.j.M.I.!.U.                                    ",
"                            !.!.!.U.U.U.U.K.m.p.a.F.!.!.U.U.U.U.U.U.U.U.U.U.U.U.Z.3.g.T./.!.                                    ",
"                            U.T.U.U.U.^.L.m.3.:.g.F.!.U.U.U.U.U.U.U.U.U.U.U.!.!.Z.p.g.J.!.U.                                    ",
"                            n.N.P.!.!.^.T.z.1.a.D.K.!.U.U.U.U.U.U.U.U.U.U.U.U.~.Z.p.p.n.F.U.U.                                  ",
"                            1.a.D.!.^.U.J.g.s.N.!.!.!.L.U.U.U.U.U.U.U.U.U.U.~.U.Z.s.-.1.M.U.^.U.                                ",
"                          ;.-.s.D./.~.D.g.:.a.J.!.!.U.U.U.U.U.T.U.U.U.U.U.U.!.U.D.p.-.:.M.U./.U.                                ",
"                        &.s.1.g.J.~.Z.5.E &.g.J.!.!.U.U.U.U.U.U.U.U.U.U.U.U.~.U.J.m.3.3.M.U./.U.                                ",
"                        J :.3.g.J.J.a.J b S p.J.!.!.U.U.U.U.U.U.U.U.U.U.U.U.U.U.U.T.c.s.n.I.U.U.                                ",
"                    r r m H &.a.j.n.3.L e 5 F c.^.!.U.U.U.U.U.U.U.U.U.U.U.U.U.U././.M.1.s.Z.I.U./.                              ",
"                    e e e x J ;.p.1.&.R m < a 4././.U.U.U.U.U.U.U.T.U.U.U.U.U.U.!.U.D.p./ -.Z.U.F.M.                            ",
"                    * 2 8 r v H &.*.S J E b n 5././.U.U.U.U.U.U.U.U.U.U.U.U.U.U.U.U.!.Z.I l 4.D.=.N                             ",
"                    & & 2 8 e c C V x b V A *.C./.E.U.U.U.U.U.U.U.U.U.U.U.U.U.U.U.U._.K.G 0 G =.N 1                             ",
"                        # * 8 8 2 4 8 w u Z 5.D.U.!.U.U.U.U.U.U.U.U.U.U.U.U.U.U.U.!.`.K.U * 6 c r r                             ",
"                            = * # o = F Q J R x.~.~.U.U.U.U.U.U.U.U.U.U.U.U.U.U.U.!._.K.T   + 6 e                               ",
"                            2 * O X $ *.D.5.#.x.(./.U.U.U.U.U.U.!.I.U.U.U.U.U.!.U.P.L.Z.      =                                 ",
"                            e q     w =.U.I.C.G.U.!.U.U.U.U.U.U.U.U.U.U.U.!.!.!.D.g.p.p.                                        ",
"                                    @.b.U._.^.D.n.m.J.U././.U.U.U.U.U.U.!.~.U.D.z.1.;.:.                                        ",
"                                    U.U.U./.K.z.1.1.g.J.I.K.U.U.U./.U.U.I.T.D.g.1.1.1.                                          ",
"                                    )./.U.U.U.D.g.1.1.a.g.n.J.~././.U.D.z.g.a.3.;.                                              ",
"                                    ^.U.U.U.U.!.J.z.a.a.p.1.z.D.J.D.Z.z.1.;.1.1.1.                                              ",
"                                    U.U.U.U.U.!.U.K.P.J.h.1.1.p.s.p.p.3.1.:.1.1.1.1.                                            ",
"                                    U.U.U.U.U.U.!./.U.Z.a.1.;.1.1.;.;.1.3.1.1.1.1.1.1.                                          ",
"                                    U.U.U.U.U.U.!.I.m.3.1.1.1.1.1.1.1.1.1.1.1.1.1.1.1.                                          ",
"                                    U.U.U.U.!.!.K.n.3.1.;.1.3.1.1.1.1.1.1.1.1.1.1.:.1.                                          ",
"                                    /.~.U.!.!.J.c.3.:.1.1.1.1.1.3.1.1.1.1.:.1.a.g.h.g.                                          ",
"                                    I.U.!.~.J.n.1.1.1.1.3.1.1.1.1.3.3.1.3.:.a.Z.U.U.K.                                          ",
"                                    $.v./.L.g.p.1.1.1.1.              p.s.g.Z./._.(./.                                          ",
"                                    z @.c.h.1.&.-.1.                    -.C.U.J.C.J.U.                                          ",
"                                o $ 7 i k / -.J L                       j f.Z.Q F ;.n.                                          ",
"                                3 5 5 < = j C c                         5 T Q d 4 B I                                           ",
"                                e q = 3 8 5 2                           w 0 4 w w 2 =                                           ",
"                                x q = 4 w 5 =                           e 0 0 w w 2 :                                           ",
"                                                                                                                                "
};
