/* XPM */
static char *_05795482b7049ca99c263214e25f57bsv1iFJeJI7RChCQz[] = {
/* columns rows colors chars-per-pixel */
"50 50 197 2 ",
"   c None",
".  c #1F212B",
"X  c #27232D",
"o  c #27232E",
"O  c #28232E",
"+  c #29232E",
"@  c #2B232E",
"#  c #28242E",
"$  c #29242E",
"%  c #2B242E",
"&  c #2B252E",
"*  c #2A242F",
"=  c #2B242F",
"-  c #2B252F",
";  c #2C242E",
":  c #2D242E",
">  c #2C242F",
",  c #2C252F",
"<  c #2D252F",
"1  c #242630",
"2  c #2B2530",
"3  c #2C2530",
"4  c #2F2430",
"5  c #2F2630",
"6  c #2F2631",
"7  c #2C2932",
"8  c #2D2932",
"9  c #2E2833",
"0  c #2D2A33",
"q  c #2F2B34",
"w  c #312731",
"e  c #342731",
"r  c #362832",
"t  c #302C35",
"y  c #302D36",
"u  c #312D36",
"i  c #332E37",
"p  c #342E37",
"a  c #3B2833",
"s  c #3D2934",
"d  c #3D2935",
"f  c #343039",
"g  c #35313A",
"h  c #38323B",
"j  c #39353D",
"k  c #3C363D",
"l  c #442E39",
"z  c #472F3A",
"x  c #472F3B",
"c  c #492E3A",
"v  c #4A2E3B",
"b  c #51313C",
"n  c #52313D",
"m  c #58333E",
"M  c #5C343F",
"N  c #5D353F",
"B  c #3F3A42",
"V  c #403940",
"C  c #613441",
"Z  c #603541",
"A  c #623540",
"S  c #613640",
"D  c #683542",
"F  c #6F3844",
"G  c #6F3845",
"H  c #763B46",
"J  c #7E3B49",
"K  c #7D3C48",
"L  c #7E3C49",
"P  c #7F3C49",
"I  c #595A6E",
"U  c #596B6F",
"Y  c #5A6C70",
"T  c #5D6E73",
"R  c #5A777D",
"E  c #736F6E",
"W  c #71716F",
"Q  c #73706F",
"!  c #696B70",
"~  c #6A6B71",
"^  c #6C6C71",
"/  c #6C6D71",
"(  c #6C6D73",
")  c #787674",
"_  c #7D7A78",
"`  c #7D7B79",
"'  c #863E4B",
"]  c #8D3E4D",
"[  c #8D3F4D",
"{  c #95404F",
"}  c #94414F",
"|  c #944150",
" . c #944250",
".. c #994452",
"X. c #9D4452",
"o. c #A44554",
"O. c #AB4856",
"+. c #AE4858",
"@. c #B14A58",
"#. c #B34A59",
"$. c #B84B5B",
"%. c #BB4C5B",
"&. c #BD4D5C",
"*. c #C14E5D",
"=. c #C34E5D",
"-. c #C64F5F",
";. c #CB5161",
":. c #D05262",
">. c #D25262",
",. c #D45463",
"<. c #D75463",
"1. c #DA5565",
"2. c #DA5466",
"3. c #DE5666",
"4. c #DF5667",
"5. c #E05767",
"6. c #E35768",
"7. c #E55869",
"8. c #E65868",
"9. c #E75868",
"0. c #E75969",
"q. c #E9586A",
"w. c #EA596A",
"e. c #EB596A",
"r. c #EC5A6A",
"t. c #ED5A6B",
"y. c #ED5B6B",
"u. c #EF5A6B",
"i. c #EE5A6C",
"p. c #F05B6C",
"a. c #F15B6C",
"s. c #82807E",
"d. c #83807E",
"f. c #82817E",
"g. c #5D7D83",
"h. c #7D7E82",
"j. c #618389",
"k. c #78CDD4",
"l. c #858581",
"z. c #878581",
"x. c #808086",
"c. c #888782",
"v. c #8D8C87",
"b. c #8D8C8F",
"n. c #8C8D8F",
"m. c #93938D",
"M. c #979590",
"N. c #999892",
"B. c #8789B9",
"V. c #ABA9A0",
"C. c #C0BEB2",
"Z. c #C0BFB2",
"A. c #C1BFB3",
"S. c #C2C0B4",
"D. c #C4C2B6",
"F. c #C5C3B6",
"G. c #C5C4B6",
"H. c #C5C4B7",
"J. c #C7C5B9",
"K. c #C9C7B9",
"L. c #C9C7BA",
"P. c #CAC8BB",
"I. c #CBC9BB",
"U. c #CBCABC",
"Y. c #CCCABD",
"T. c #CDCBBD",
"R. c #CECCBE",
"E. c #D2D0C2",
"W. c #D3D1C2",
"Q. c #D3D1C3",
"!. c #D3D2C3",
"~. c #D4D2C4",
"^. c #D4D3C4",
"/. c #D5D3C5",
"(. c #D6D4C5",
"). c #D5D4C6",
"_. c #D6D5C6",
"`. c #D7D5C7",
"'. c #D7D6C7",
"]. c #D8D6C8",
"[. c #D8D7C9",
"{. c #D9D7C9",
"}. c #DAD8CB",
"|. c #E7E6D8",
" X c #E9E8DA",
".X c #EAEADB",
"XX c #ECEBDD",
"oX c #EEEDDE",
"OX c #EDECE0",
"+X c #EFEFE0",
"@X c #F1F0E2",
"#X c #F2F1E4",
"$X c #FCFBED",
"%X c #FDFCED",
"&X c #FDFCEE",
"*X c #FEFDEE",
"=X c #FEFDEF",
/* pixels */
"                                                                                                    ",
"                                                                                                    ",
"                                                                                                    ",
"                                                                                                    ",
"                                                                                                    ",
"                                                2 3                                                 ",
"                                            3 a +.+.d ,                                             ",
"                                        % r o.i.a.a.a.@.d +                                         ",
"                                    , w X.i.a.a.a.a.a.a.a.O.r 2                                     ",
"                                3 w  .w.u.a.a.a.a.a.a.a.a.a.i.o.e :                                 ",
"                            , 4 X.w.a.a.a.a.a.$.l l @.a.a.a.a.a.r.X.w ,                             ",
"                        % : { r.a.a.a.a.a.$.l V M.M.V x $.a.a.a.p.p.q. ., ,                         ",
"                    + o ' 8.a.a.a.a.a.=.b k v.T.R.R.T.N.B c %.a.a.a.a.a.q. ., 3                     ",
"                % o ' 7.p.p.a.p.a.=.m g c.U.R.].@X#X}.R.U.m.j v &.a.a.a.a.a.7.[ % 2                 ",
"            , o K 6.a.a.p.p.p.;.Z f f.P.R.`.oX=X=X=X=X#X].T.U.v.h n -.a.a.a.a.a.7.[ % %             ",
"        + o K 5.a.a.a.a.p.;.N p l.P.R._.oX=X=X=X=X=X=X=X=X@X].T.L.l.p M ;.a.a.a.a.a.4.K % 3         ",
"        . 4.p.p.a.a.p.;.B g ..L.R._.XX&X=X=XY R R R R Y =X=X=X@X].R.L.f.y A :.a.a.a.a.a.4..         ",
"        . p.p.u.a.,.G 0 h.U.[.~..X&X&X&X=X=Xg.k.k.k.k.g.=X=X&X&X&XoX_.R.J.f.q A :.a.a.a.a..         ",
"        . a.y.,.H q W H.!.^..X&X=X=X&X=X=X=XT j.j.j.j.T =X=X=X=X=X=X&XOX~.R.J.` 7 D ,.a.a..         ",
"        . 4.} h W D.U.!..X$X=X=X=X=X=X=X=X=X=X&X&X=X=X=X=X=X=X=X=X=X=X=X&XXX~.R.D._ 7 H 1..         ",
"        . % . V.R.!.|.$X&X=X=X=X=X=X&X&X&X=X&X&X=X&X&X&X=X=X=X=X=X=X=X=X=X=X=X XQ.R.V.0 7 o         ",
"            . !.|.$X$XoX~ ^ ^ ^ / / / / / / / / / / / / / / / / ^ ^ ^ ^ ^ ~ OX=X&X.X!..             ",
"            X &X&X&X=Xn.A.T.T.T.R.T.T.T.R.T.T.T.R.R.T.T.T.T.R.R.T.T.T.T.T.C.b.=X&X=X$X.             ",
"            . &X&X&X&Xj.T.T.T.T.R.R.T.T.R.R.T.V.W W V.T.T.T.T.R.T.T.T.T.T.T.h.=X=X=X=X.             ",
"            . =X=X=X=Xh.T.T.T.T.T.T.T.T.T.T.T.T.R.T.T.T.T.T.T.T.E.U.U.T.T.T.h.=X=X=X=X.             ",
"            . =X=X=X=X( I I I I I I I I I I I I I I I I I I I I I I I I I I ( =X=X=X=X.             ",
"            . =X=X=X=Xx.B.B.B.B.B.B.B.B.B.B.B.B.B.B.B.B.B.B.B.B.B.B.B.B.B.B.j.=X=X=X=X.             ",
"            . =X=X=X=Xx.B.B.B.B.B.B.B.B.B.B.B.B.B.B.B.B.B.B.B.B.B.B.B.B.B.B.z.=X=X=X=X.             ",
"            . =X=X=X=Xx.B.B.B.B.B.B.B.B.B.B.B.B.B.B.B.B.B.B.B.B.B.B.B.B.B.B.x.=X=X=X=X.             ",
"            . =X=X=X=Xx.B.B.B.B.B.B.B.B.B.B.B.B.B.B.B.B.B.B.B.B.B.B.B.B.B.B.x.=X=X=X=X.             ",
"            . =X=X=X&Xz.B.B.B.B.B.B.B.B.B.B.B.B.B.B.B.B.B.B.B.B.B.B.B.B.B.B.x.=X=X=X=X.             ",
"            . =X=X=X=Xj.B.B.B.B.B.B.B.B.B.B.B.B.B.B.B.B.B.B.B.B.B.B.B.B.B.B.x.=X=X=X=X.             ",
"            . =X=X=X=Xx.B.B.B.B.B.B.B.B.B.B.B.B.B.B.B.B.B.B.B.B.B.B.B.B.B.B.x.=X=X=X=X.             ",
"            . =X=X=X=Xx.B.B.B.B.B.B.B.B.B.B.B.B.B.B.B.B.B.B.B.B.B.B.B.B.B.B.x.=X=X=X=X.             ",
"            . =X=X=X=Xx.B.B.B.B.B.B.B.B.B.B.B.B.B.B.B.B.B.B.B.B.B.B.B.B.B.B.x.=X=X=X=X.             ",
"            . =X=X=X=Xx.B.B.B.B.B.B.B.B.B.B.B.B.B.B.B.B.B.B.B.B.B.B.B.B.B.B.x.=X=X=X=X.             ",
"            . =X=X=X=Xx.B.B.B.B.B.B.B.B.B.B.B.B.B.B.B.B.B.B.B.B.B.B.B.B.B.B.x.=X=X=X=X.             ",
"            . =X=X=X=Xx.B.B.B.B.B.B.B.B.B.B.B.B.B.B.B.B.B.B.B.B.B.B.B.B.B.B.x.=X=X=X=X.             ",
"            . =X=X=X=Xx.B.B.B.B.B.B.B.B.B.B.B.B.B.B.B.B.B.B.B.B.B.B.B.B.B.B.x.=X=X=X=X.             ",
"            . =X=X=X=Xx.B.B.B.B.B.B.B.B.B.B.B.B.B.B.B.B.B.B.B.B.B.B.B.B.B.B.x.=X=X=X=X.             ",
"            . =X=X=X=Xx.B.B.B.B.B.B.B.B.B.B.B.B.B.B.B.B.B.B.B.B.B.B.B.B.B.B.x.=X=X=X=X.             ",
"            1 . . . . . . . . . . . . . . . . . . . . . . . . . . . . . . . . . . . . 1             ",
"                                                                                                    ",
"                                                                                                    ",
"                                                                                                    ",
"                                                                                                    ",
"                                                                                                    ",
"                                                                                                    ",
"                                                                                                    ",
"                                                                                                    "
};
