/* XPM */
static char *_8b3bacf8f354d84c591be9ba77d4363FKnISDMnblPqYOMd[] = {
/* columns rows colors chars-per-pixel */
"80 77 189 2 ",
"   c None",
".  c #030003",
"X  c #06050B",
"o  c #0B050C",
"O  c #0C0A0E",
"+  c #07080B",
"@  c #1C100C",
"#  c #0F0B10",
"$  c #0F0711",
"%  c #100710",
"&  c #130D13",
"*  c #161116",
"=  c #191217",
"-  c #171218",
";  c #1B151A",
":  c #1E191D",
">  c #20171D",
",  c #211A1E",
"<  c #281C1C",
"1  c #1F1A20",
"2  c #231D21",
"3  c #262124",
"4  c #292426",
"5  c #2C2827",
"6  c #272329",
"7  c #2B2628",
"8  c #2E2A2A",
"9  c #312D2C",
"0  c #352A23",
"q  c #383027",
"w  c #34312E",
"e  c #39352F",
"r  c #332F30",
"t  c #353332",
"y  c #393632",
"u  c #373836",
"i  c #3C3A34",
"p  c #363739",
"a  c #37393B",
"s  c #3B3B3B",
"d  c #423D34",
"f  c #433D3D",
"g  c #44433A",
"h  c #49463B",
"j  c #4B4B3E",
"k  c #434033",
"l  c #625B3D",
"z  c #64603F",
"x  c #3E4141",
"c  c #434541",
"v  c #464946",
"b  c #4B4B43",
"n  c #464B49",
"m  c #4A4E4A",
"M  c #4D514C",
"N  c #4C5047",
"B  c #535445",
"V  c #595746",
"C  c #575846",
"Z  c #5B5844",
"A  c #52564B",
"S  c #56584A",
"D  c #5C5C4B",
"F  c #515551",
"G  c #565B54",
"H  c #595C54",
"J  c #575E59",
"K  c #635E48",
"L  c #5D6255",
"P  c #5D635B",
"I  c #62624D",
"U  c #6C6B4E",
"Y  c #636552",
"T  c #6C6D57",
"R  c #64655C",
"E  c #63695E",
"W  c #6B6D5B",
"Q  c #686753",
"!  c #6D705D",
"~  c #73745C",
"^  c #78785F",
"/  c #5E6560",
"(  c #646B63",
")  c #6A6D63",
"_  c #676F69",
"`  c #6E6F6B",
"'  c #6C7263",
"]  c #6B736A",
"[  c #6F786F",
"{  c #737563",
"}  c #787760",
"|  c #767963",
" . c #797A65",
".. c #72796E",
"X. c #7B7E6B",
"o. c #75726A",
"O. c #707770",
"+. c #727C73",
"@. c #7A7E74",
"#. c #797F78",
"$. c #817F67",
"%. c #7D816C",
"&. c #7D8273",
"*. c #7C857B",
"=. c #768076",
"-. c #81846E",
";. c #83836C",
":. c #87886F",
">. c #838573",
",. c #868973",
"<. c #8A8B75",
"1. c #81847A",
"2. c #848A7C",
"3. c #8B8D7C",
"4. c #8E917D",
"5. c #92937D",
"6. c #94987E",
"7. c #868D83",
"8. c #8A8E82",
"9. c #8D9283",
"0. c #8D958A",
"q. c #939584",
"w. c #959A85",
"e. c #9A9B86",
"r. c #92958A",
"t. c #95998C",
"y. c #9A9D89",
"u. c #9A9C8C",
"i. c #989785",
"p. c #979D92",
"a. c #9B9D91",
"s. c #A19F8B",
"d. c #9EA08D",
"f. c #9DA294",
"g. c #9CA599",
"h. c #A1A38E",
"j. c #A5A792",
"k. c #A3A494",
"l. c #A6A996",
"z. c #A6A994",
"x. c #A9AA95",
"c. c #A3A79B",
"v. c #A6A99B",
"b. c #ACAD9C",
"n. c #AFB19D",
"m. c #B1B29D",
"M. c #A7ABA2",
"N. c #ABADA1",
"B. c #ACB1A3",
"V. c #ABB4A6",
"C. c #B3B4A4",
"Z. c #B4B8A6",
"A. c #B8B9A7",
"S. c #B3B5AA",
"D. c #B6B9AC",
"F. c #BBBCAC",
"G. c #BCBDB2",
"H. c #BCC0AE",
"J. c #BDC0A7",
"K. c #BFC4B4",
"L. c #C1C2AD",
"P. c #C3C3B4",
"I. c #C8C7B6",
"U. c #C9CAB6",
"Y. c #C4C5BA",
"T. c #C8C7B8",
"R. c #C4CBB9",
"E. c #CBCBBC",
"W. c #CFD1BF",
"Q. c #C5C6C1",
"!. c #CDCCC2",
"~. c #C6C9CA",
"^. c #CDCECA",
"/. c #C7C8C3",
"(. c #D0CFC3",
"). c #CED0CC",
"_. c #D3D2C4",
"`. c #D8D6C6",
"'. c #D4D4CB",
"]. c #D9D7CB",
"[. c #DBDACC",
"{. c #DADBC4",
"}. c #D6D6D0",
"|. c #DCDBD2",
" X c #E0DED2",
".X c #E3E1D5",
"XX c #E5E4DB",
"oX c #EFEADF",
"OX c #EEEBE2",
/* pixels */
"                                                                                                                                                                ",
"                                                              * # * # # * # # # O + O = i                                                                       ",
"                                                    * # # * # # * # * # O # # * # # + + O e I | &.                                                              ",
"                                                # * * * # # * O # * # # * # # O # # O O + # e I ~ %.6.w.                                                        ",
"                                          + + * = = * * * * @ ; * = # @ * * # & * O # # O O ; k Y %.-.6.d.d.                                                    ",
"                                      # * * : * ; ; = : : = = : : ; ; : = : ; ; * * * # O O ; k I ^ -.<.d.d.z.n.                                                ",
"                                    + : , : : : ; : : ; , : : ; : @ * = , : ; : * * * * = & ; e j T %.<.d.h.m.m.F.P.                                            ",
"                                + : : * * : : * * : * : @ = ; ; * * # * * # O @ = * * @ = # O , w C ^ ^ ;.d.h.m.A.J.U.{.                                        ",
"                              # * * * * * : * * : * * : * * * : * * * # * : , * ; * # # # * + * 9 h T | T <.d.y.j.j.Z.L.W.                                      ",
"                          + & - * * * 1 1 * : : : : : # 3 3 + @ ; : = # ; < : * * O @ O # * + * 5 i D %.| T 6.d.h.h.k.l.m.I.                                    ",
"                        X * ; * * * * : * * : * : = : 5 : : 3 * , = : : = # * : * ; = : = * * * , e j | %.T %.z.y.j.j.C.x.C.I.E.                                ",
"                      + - ; - - : * : : * : * : : : @ 3 : : 3 @ 5 @ : : O ; 3 = ; ; = : = = = # = 9 i Y %. .T q.h.h.x.x.A.Z.A.I.W.                              ",
"                    + * ; * ; 1 * 1 1 * : * : 5 3 : = : : : : : 3 : , = : 3 : * = * * + * : * + * 3 e C %.%.T %.x.e.j.b.A.F.A.L.T.W.                            ",
"                  + * 1 - - : - * 1 1 : : 3 2 : : = = : : * : 3 ; @ : * : : * = ; * * * * * * # * , w j ~ %.| { u.k.h.m.b.F.L.F.P.W.`.                          ",
"                X * - - - 1 - - : * : * * 5 : * : @ = : : * : @ * , = * * * ; = : = = = * * * * * # * 9 L  .,. .3.x.u.x.b.A.P.F.T.T.W.[.                        ",
"                # ; : * : 1 - 1 : 2 1 1 : * : 1 : : : 3 : # 3 : ; 5 < , : @ ; : : = = * # ; ; * . ; N E %.%.! Y ;.F.x.s.Z.b.L.P.L.I.T.{.[.                      ",
"              # * : * : 1 1 : 3 - - 3 3 : 1 1 5 5 2 : 3 * * : : 3 < = : : = = : 2 ; * = O : = . s d.d.d.4.%.D j k R m.m.m.n.Z.L.L.P.I.W.{.                      ",
"            + - : 1 * 1 1 1 1 1 - - 1 : * 1 1 3 w 2 : : : : 3 = : > = = ; ; : : , ; = ; : > . H K.w.,.%.,. .~ L k O 5 e.L.b.x.A.I.E.T.E.`. X                    ",
"            & : 1 : : 1 1 1 1 - : : : 1 5 * 3 5 5 * 2 : 5 5 5 3 = ; : : : : : , 3 ; = = 9 o p R.4.4.d.4.:. .^ I e 3 . # e.U.k.C.P.W.T.E.W.`.[.                  ",
"          # ; 1 1 * 1 1 3 3 3 : 3 3 1 3 5 : 3 5 2 : 2 2 2 3 = : ; ; : : 4 , ; : < ; & : 5 & p.u.*.m.d.6.<.%.^ Z 2 = , . & b.A.k.F.E.W.E.`.`.[.                  ",
"        + ; : : : * : 5 3 1 : : 1 * 1 * * * 1 5 1 : * * * : 2 : = = : ; 2 4 , * - ; * * . f A.9.b.f.d.4.<.:.B > * = = > . 9 F.m.C.T._.E.W.`.`. X                ",
"        * 1 ; ; : : : 6 1 5 1 : 1 : 1 : : * * : : * : : * * 5 5 : , = : : 2 , ; : : : : . ( B.q.J.d.6.6.6.^ = o = ; > > ; . o.{.n.Z.P.U.E.`.`.[. X              ",
"      + : ; - : : 1 5 1 3 5 3 : : 1 : 1 * : 1 1 : * 1 : : : 3 : = , , = , ; * : : : : : . #.Z.d.x.z.d.6.6.5 . = > ; ; ; ; # * x.U.m.A.T.E.(.`.[. X              ",
"      * 1 - : 1 : : 3 3 1 : 2 : : 1 1 1 : 1 1 : : : 3 1 : 1 3 : : , : : 2 : : 2 : * - ; . *.H.j.z.x.d.n.I @ < & : = > ; , : . o.[.m.F.T.T.(.(.[. X.X            ",
"      : : - : 2 2 2 2 3 3 1 : 1 1 1 1 : * 3 1 : : : : : : 3 : : 3 3 2 : 2 : , 2 : ; ; - X #.F.f.h.h.x.s.l z l 0 & = : : : ; . f I.Z.C.T.T.W.(.`.[..X            ",
"    & 2 : : 3 8 6 6 4 6 6 3 3 3 5 3 5 5 1 3 3 1 3 1 * : : 1 1 5 3 3 3 3 3 2 2 : 2 1 2 2 . ` S.f.j.h.x.i.Y I I K < - : : : ; & - l.I.x.G.E.E.(._.[. X            ",
"    : 3 1 1 2 2 3 2 8 8 6 1 : 6 1 3 w 1 1 5 : 3 3 1 : 3 1 3 3 : , , 3 3 4 3 : ; 1 ; 2 2 o M k.q.m.x.x.l.%.D A U q & : 1 2 > * & u.W.S.G.E.E.E.(.[. X|.          ",
"    3 3 : 1 1 1 1 3 w 6 3 : : 2 : 5 u 1 3 3 : 1 : : 3 : 3 3 3 : : , 3 : r 4 - : 2 2 ; 1 & 7 a.a.z.k.h.m.&.A T I 7 * - - - ; * o r.E.C.G.Y.!.'.'.[.|. X          ",
"  * 7 1 2 2 1 2 2 6 8 6 3 1 1 6 1 w 5 1 3 1 : : : : 3 : 1 5 5 : : 2 2 2 9 4 - 2 2 2 2 2 2 . +.n.9.l.d.x.u.s p r % > - & - - & % u._.l.C.K.E.[.^.'.[.|..X        ",
"  : 6 1 2 2 1 3 8 w t 5 3 1 6 6 1 5 1 * 1 1 : 1 : * : : : 3 3 : : 2 2 2 r 3 ; 2 2 ; - 2 2 o t N.9.l.d.z.j.W X X ; - 2 > - - & & a.W.N.C.G.E.'.!._.'.|..X        ",
"  4 3 2 4 2 2 8 5 8 t 5 3 1 3 2 1 5 3 : 1 * 1 3 : * : : 3 5 3 3 2 > 2 4 r 4 2 2 1 2 ; 2 2 2 . ` g.2.V.d.i.6.V o % ; ; ; > ; o 2 S.T.Z.N.P./.'._.!.'.|..X        ",
"  8 3 1 3 1 4 7 1 9 9 6 6 2 6 5 5 5 1 5 5 3 3 1 1 : 1 1 1 : : * : ; 2 3 2 8 8 6 2 2 ; 1 2 2 ; # 9.0.7.d.<.3.,.b ; % ; - ; 2 . H `.F.C.N.G.Y._.'.^.'.[. X        ",
"  3 3 3 2 3 3 2 3 9 w 6 3 6 5 3 8 5 1 3 4 3 , 2 2 ; 2 2 2 2 2 2 2 : 6 6 4 2 1 2 6 > 2 2 2 2 2 - 6 r.r.$.4.3.%.| S 5 & * : X & c.Y.G.C.M.G.Y.!.'.^.}.'. X X      ",
"6 3 3 3 6 2 6 2 6 w 6 6 5 6 5 6 5 8 : ; 3 - 2 2 2 ; ; 2 2 2 2 2 : : 2 2 2 2 1 2 6 2 2 2 6 6 > 2 % 2 *.0.7.&.=.! W B w 8 & . #.P.N.G.S.M.D.G.!.}.^.).}.|.OX      ",
"3 5 3 6 3 3 5 1 6 w 8 6 5 6 6 5 8 8 - 1 3 : 3 2 1 ; > 2 2 2 2 2 2 2 2 2 8 3 2 2 2 2 6 > > 6 7 > - % - F 7.0.&.) H H C , $ _ V.g.B.F.S.M.S.G.~.).^.).}.|. X      ",
"6 5 1 3 3 1 3 1 5 w 5 6 2 2 6 2 7 8 : : 2 : 2 2 2 1 > 2 2 2 2 2 1 2 2 2 7 6 2 2 2 < 7 6 > > < 2 - 2 - o 2 F P R L P L M #.g.*.f.S.D.S.M.S.G./.).).).).|. X      ",
"6 9 9 5 5 w w 9 w u w w 8 t 8 8 8 w 3 2 7 4 3 3 2 2 2 6 2 2 2 2 2 2 2 2 : ; : : > 2 2 > 2 < 6 2 - - - - o . ; p m P / #.*.*.#.p.S.F.v.f.M.F.Y.^.~.~.). X}.      ",
"3 w w u u u u e u u e u i i i e y w w 9 t 9 9 5 8 8 9 9 8 8 9 7 8 9 7 7 6 4 6 2 6 < 6 2 2 6 6 2 ; 2 - - > > 6 p m / ( _ *.0.0.g.N.C.S.C.D.Q./.'.).).}. XXX      ",
"1 w 5 5 5 5 9 e k i k e i e e t t w w w 9 9 9 7 9 9 8 7 9 9 7 9 8 7 2 7 7 2 6 4 7 7 7 < 6 6 2 2 2 > > > > 2 r c P _ =.7.0.p.M.M.C.S.G.T./.(.(.'. X XXXXXOX      ",
"3 5 5 5 5 5 5 5 u u u w i u e t t w 8 9 7 9 7 4 9 7 7 8 8 2 r 8 8 r y y y d r 9 8 7 8 7 2 > 6 2 2 2 2 > ; > 7 a n G / O.*.7.0.p.v.v.N.G.G.Q./.^.}.|.|.XX).      ",
"6 9 w w u u e w w 8 w e e e e e w w 9 9 5 8 8 5 8 8 8 8 7 2 9 2 8 q r d y r r f 8 4 r 8 2 2 2 6 2 2 2 2 1 2 r p u v F P _ ( [ 7.t.a.M.S.D.G./.Q.!.].[.XX_.      ",
"3 6 5 5 5 w w 5 8 e e i u k u e t w t t t 9 9 w r r 8 8 9 q 7 7 7 7 2 2 2 2 2 2 2 2 2 2 2 6 > 2 2 2 2 > ; 2 p x G / +.*.7.0.f.g.N.S.F.G.Y.!.!.'.].[. X XOX      ",
"3 3 5 3 : 2 5 : 1 5 8 e w w 8 8 9 5 6 5 8 8 8 8 2 r 9 0 7 7 q r r 7 7 2 2 r 8 2 r r 7 2 2 2 2 > 2 2 > ; 1 1 r x F / [ =.2.0.g.g.c.N.S.Y.T.T.!.'.'.|. X X X      ",
"  3 6 3 : 3 w 3 3 4 4 w w 5 5 4 2 5 3 : 3 3 2 2 2 7 2 2 2 2 7 2 < 7 2 2 2 2 2 2 8 2 > 4 6 2 1 1 2 2 2 1 ; - 2 p v M P / ] *.*.2.k.a.u.M.M.C.F.G.(.]./.!.'.      ",
"  3 3 3 : 3 w 3 3 4 4 w 5 5 w 2 1 8 4 : 3 3 2 2 2 2 4 2 2 2 2 2 2 2 2 2 > > 2 > = 2 2 2 2 > ; > > > 2 > ; 1 2 8 p p n J / ( _ =.f.t.r.t.p.c.S.S.(.].Y./._.      ",
"  1 1 5 6 1 w 3 : 4 4 5 8 5 w 3 : 5 3 3 3 3 2 3 2 2 2 4 2 2 2 2 2 7 > 2 > > 2 2 2 > > 2 > > 1 > > 2 2 > ; 1 2 9 p p n M J _ [ 2.f.r.t.k.a.M.C.D.'.(.Y.(.(.      ",
"  4 1 3 3 3 5 5 3 3 3 5 e 5 t 4 : 8 8 4 6 2 3 5 4 4 7 2 2 4 2 2 2 2 2 2 2 > 2 2 > 2 > - - > ; - - > 2 > 1 - 1 6 8 p n m L ] [ 2.f.8.t.i.r.c.N.S.^.!.Y.!.E.      ",
"  1 1 2 5 3 5 5 ; 4 1 3 w 8 t 4 3 8 8 2 3 2 3 5 2 2 4 4 4 4 2 2 7 7 2 2 2 > > 2 2 > 2 > > > 1 2 - - > 2 - - 1 6 6 p n n P ] _ 2.a.8.r.9.r.c.b.S.'.E.Y.(.P.      ",
"    5 2 3 , 8 9 : < 3 3 9 w w 4 4 w 9 3 7 4 3 7 5 7 4 7 7 2 8 2 2 < 6 2 > 2 > > 2 7 2 2 > - > 2 > 2 2 > - - 1 6 6 r n m ( ( / 7.a.2.r.8.u.c.v.F.'.P.F.(.        ",
"    2 : 3 , 3 9 , 3 8 < w w w 9 8 y 9 4 7 3 3 8 9 9 5 9 w 2 4 2 2 4 2 2 2 2 4 6 7 2 > 2 2 > - - - > 6 2 - $ 1 6 6 p x m / _ ( 7.t.1.q.3.r.c.k.G.'.G.P.!.        ",
"    : 6 3 3 3 e 5 : 4 , w 9 9 w 5 9 9 3 7 4 3 3 3 4 4 3 2 2 2 2 2 6 2 2 2 2 2 8 2 2 > 2 > - > - - > > > - - ; 6 6 p p n P / R 9.9.$.8.q.u.k.c.T.!.S.Y.T.        ",
"      3 3 3 3 y w 3 5 5 8 e i t 5 9 5 2 2 3 2 3 4 4 7 7 4 < 7 2 2 6 2 2 2 2 7 2 2 2 > 2 > - > - - > - - - $ - 1 6 r a m L R ] 0.1.<.8.r.a.k.c.E.F.C.T.E.        ",
"      : 3 , 3 5 w 8 8 w 5 e w e w 7 9 8 9 9 7 4 9 y 4 4 2 2 2 2 2 2 < 6 2 2 2 7 2 6 > > ; - - - - - > - $ - ; 1 2 t u n G F ..t.$.7.8.r.k.v.C.!.F.G.E.          ",
"      * 3 3 3 4 3 5 3 3 3 3 , 8 9 4 2 2 9 y y 7 9 y 9 y 7 7 7 7 6 4 7 6 2 7 7 2 2 2 2 2 > > 2 > - > > - - - > 2 7 s a N G G =.3.@.r.k.k.v.b.b.A.F.P.P.          ",
"        ; 3 2 3 5 w 8 5 3 3 4 4 8 4 , > 2 2 4 2 2 2 9 9 7 7 5 7 7 7 4 > 2 7 2 2 6 2 2 2 2 2 2 ; > 2 > > $ - 2 2 r p s M L E ' { $.a.b.r.i.a.c.N.C.G.            ",
"        # 3 : : 7 9 8 5 5 5 5 5 5 7 2 2 2 2 4 4 4 4 9 6 4 7 4 2 < 6 2 2 2 6 2 2 2 2 - > 2 > > 2 > 2 > - $ - - ; 2 6 u M G L E ' $.k.k.r.i.k.b.b.C.F.            ",
"          ; 3 < 3 4 5 7 4 4 4 < 5 5 4 3 2 2 2 5 w 7 7 7 2 4 4 2 4 6 2 2 2 7 2 2 2 2 ; ; > & > - & 2 1 - - # - 2 2 7 s A A L ! ' >.k.u.q.t.k.b.b.Z.              ",
"            1 9 7 < 4 5 5 4 5 3 7 8 3 2 4 3 > 2 4 2 4 7 2 2 4 2 2 4 2 2 2 2 2 2 2 ; > ; ; - - - ; 2 ; - & & ; 1 6 8 u N N P ! ' 9.k.3.q.i.a.m.b.C.              ",
"            O 7 5 : 4 4 5 3 3 e 9 8 7 8 5 9 5 4 2 2 2 9 2 < 2 2 > 2 4 > 2 2 2 > > 2 ; ; 2 2 - & - 2 ; # # & & - 1 8 p x N L E { u.s.q.s.u.c.b.b.                ",
"              * 5 3 : 7 5 4 , 8 < 3 5 w 7 7 r 4 4 8 4 2 9 7 2 > 4 2 2 2 > < 2 2 2 2 ; ; 2 2 - - 1 2 ; - # - 2 1 8 p x A L E ! *.f.8.i.u.k.k.f.b.                ",
"                ; 5 : , 3 3 < 4 3 ; , 4 4 2 2 2 < 2 2 2 2 4 2 2 2 2 2 2 2 2 2 > > ; > : ; ; ; ; ; - - - & - 2 2 5 u c M L L ! 9.q.$.8.i.f.u.k.                  ",
"                + < 5 ; 3 , , 3 7 < , 7 7 2 2 2 > 2 2 2 > > 2 7 8 2 ; ; > > > > > > > > > ; - - % % & % # & & ; 2 9 y j B D | w.>.>.9.u.i.e.                    ",
"                  * 5 , : , 3 2 4 4 , , 7 3 > 2 2 2 4 2 > 2 2 2 2 2 > ; - > > - > > - ; ; % = ; - & & % # * - 1 3 8 y b C L 3.4. .,.i.q.4.i.                    ",
"                    = , , 4 3 3 2 4 , ; 2 3 - 2 > < 4 2 > > 2 2 2 2 2 > > > > > ; ; ; > 2 > ; ; - & - - * # : 1 2 7 i N S ' 9.%. .3.3.,.i.                      ",
"                      & 3 < < 3 2 7 3 : , 3 < 3 ; = : 3 : : : : > , , ; > : ; ; ; ; & > > > ; * & * & & = # = ; 2 9 g A D >.$.W @.<.<.i.                        ",
"                        & 2 , : : 3 7 , > , , 3 3 < : , , : ; ; > > > - ; ; ; ; * = & ; = % & & % & & # % & - , 7 9 g C { ,.T  .5.3.3.                          ",
"                          & 2 , ; : , , ; ; ; ; : 4 : : : , , ; > > > > > ; ; ; ; - ; ; = = = & & & & = & > , 5 9 d B Y { T T ,.5.<.                            ",
"                            ; 3 , : : , , : = ; ; : ; = ; > > ; > = > > , ; > = = & = ; = > > & & & & & & ; > 4 9 f V T I I  .3.$.                              ",
"                              * 5 5 > , , ; ; = - : , ; = ; ; > ; = = ; > ; ; - & = & & = % % & & * & & # & = < 8 f K Y K T ,.;.                                ",
"                                  < 8 4 3 < : : : ; : ; = & = ; = = ; ; > - & - % & * & & & & & # * & @ % & > 3 q h V K T 5.                                    ",
"                                    = 4 4 4 < 3 < 2 , < > : ; > > & = = ; % @ & = % @ % % & & & O O & # # = < y j U } ;.5.                                      ",
"                                        : < 3 , , 3 3 , , 2 < > > > > ; ; ; = ; > = - - ; & = > = = & & > 9 h I ^ :.<.                                          ",
"                                            > , > = = , ; > > > : , > > > = > = ; = = = ; ; & & * & O @ < i Z ~ ^ $.                                            ",
"                                                = = & * ; = = = * * = = = = * * * = & * & @ & & & & O & < d D Z                                                 ",
"                                                    * & = = = & o o & & = & & ; ; & & & @ % & # O o o > i                                                       ",
"                                                          & * & & # & & = & & = & % & % % & # O o O                                                             ",
"                                                                    & O & & O o % & O o + #                                                                     "
};
