/* XPM */
static char *_609aa7730d4475bc8d2cb7195bd44e9vOPYHLVnTAYA11t4[] = {
/* columns rows colors chars-per-pixel */
"50 50 241 2 ",
"   c None",
".  c #21212B",
"X  c #24222C",
"o  c #24232C",
"O  c #25222D",
"+  c #26232D",
"@  c #27232D",
"#  c #27232E",
"$  c #26242C",
"%  c #27242D",
"&  c #27242E",
"*  c #29222D",
"=  c #28222E",
"-  c #28232E",
";  c #29232E",
":  c #29232F",
">  c #2B232F",
",  c #2C232E",
"<  c #2C232F",
"1  c #28242D",
"2  c #28252D",
"3  c #28242E",
"4  c #29242E",
"5  c #28242F",
"6  c #2A242E",
"7  c #2B242E",
"8  c #2B242F",
"9  c #2A252F",
"0  c #2D252E",
"q  c #2C242F",
"w  c #2C252F",
"e  c #2D252F",
"r  c #2E242F",
"t  c #2E252F",
"y  c #2D262F",
"u  c #2A2530",
"i  c #2D2530",
"p  c #2E2530",
"a  c #2F2530",
"s  c #292E34",
"d  c #312730",
"f  c #332731",
"g  c #352832",
"h  c #29383A",
"j  c #2B3C3C",
"k  c #2B3D3F",
"l  c #2C3F3D",
"z  c #353137",
"x  c #402A35",
"c  c #402B35",
"v  c #412B35",
"b  c #412B36",
"n  c #442C37",
"m  c #472D37",
"M  c #472C38",
"N  c #502F3A",
"B  c #53303B",
"V  c #5C323E",
"C  c #61333F",
"Z  c #62343F",
"A  c #2B413F",
"S  c #2C413F",
"D  c #583E45",
"F  c #643341",
"G  c #673641",
"H  c #693543",
"J  c #6E3743",
"K  c #6F3743",
"L  c #6E3844",
"P  c #6F3844",
"I  c #743945",
"U  c #763946",
"Y  c #773946",
"T  c #773A46",
"R  c #793A47",
"E  c #7B3B47",
"W  c #7D3B48",
"Q  c #2D4240",
"!  c #2F4845",
"~  c #304A47",
"^  c #314B47",
"/  c #33514A",
"(  c #33524B",
")  c #34544C",
"_  c #375B51",
"`  c #395D53",
"'  c #386055",
"]  c #3A6155",
"[  c #3E6D5D",
"{  c #4C4345",
"}  c #504F4D",
"|  c #555150",
" . c #565853",
".. c #575955",
"X. c #565E57",
"o. c #5A5A56",
"O. c #5B5A56",
"+. c #6B454B",
"@. c #634B4D",
"#. c #664F50",
"$. c #674F51",
"%. c #6C4F51",
"&. c #7F4A51",
"*. c #7D4D53",
"=. c #6F5053",
"-. c #4C6157",
";. c #4F6D5F",
":. c #536259",
">. c #53635A",
",. c #506459",
"<. c #50695D",
"1. c #506A5E",
"2. c #55695F",
"3. c #546E61",
"4. c #437664",
"5. c #4F7061",
"6. c #4A7462",
"7. c #437864",
"8. c #4C7866",
"9. c #517062",
"0. c #517262",
"q. c #557767",
"w. c #527F6B",
"e. c #813B49",
"r. c #803C49",
"t. c #813C49",
"y. c #833C4A",
"u. c #833D4A",
"i. c #863E4B",
"p. c #873E4B",
"a. c #883E4C",
"s. c #8A3E4C",
"d. c #8A3F4C",
"f. c #8D3F4D",
"g. c #8E3F4E",
"h. c #8F404E",
"j. c #804B52",
"k. c #854851",
"l. c #8D4E56",
"z. c #964150",
"x. c #954251",
"c. c #984251",
"v. c #9B4351",
"b. c #9D4351",
"n. c #9C4352",
"m. c #994452",
"M. c #9C4452",
"N. c #9E4452",
"B. c #964C56",
"V. c #944E57",
"C. c #9D4D57",
"Z. c #974F58",
"A. c #9F535B",
"S. c #A04653",
"D. c #A34554",
"F. c #A54655",
"G. c #A64754",
"H. c #A84755",
"J. c #A64E59",
"K. c #AA4D59",
"L. c #AE4F5B",
"P. c #B14A58",
"I. c #B34A59",
"U. c #B54A59",
"Y. c #B64A5A",
"T. c #B94C5A",
"R. c #BE4D5C",
"E. c #BF4F5E",
"W. c #B6505D",
"Q. c #C54F5E",
"!. c #C64F5F",
"~. c #C9505F",
"^. c #CA5060",
"/. c #CB5161",
"(. c #CC5160",
"). c #CC5161",
"_. c #CE5161",
"`. c #CD5261",
"'. c #D15262",
"]. c #D25362",
"[. c #D45463",
"{. c #D75463",
"}. c #D55364",
"|. c #D65364",
" X c #D45464",
".X c #D75464",
"XX c #DA5565",
"oX c #DC5565",
"OX c #DD5566",
"+X c #DF5667",
"@X c #E15667",
"#X c #E05767",
"$X c #E25767",
"%X c #E35768",
"&X c #E55869",
"*X c #E65868",
"=X c #E75868",
"-X c #E85869",
";X c #E9586A",
":X c #E9596A",
">X c #EA596A",
",X c #EC5A6A",
"<X c #ED5A6B",
"1X c #ED5B6B",
"2X c #EE5A6C",
"3X c #F05B6C",
"4X c #F15B6C",
"5X c #47836C",
"6X c #49836C",
"7X c #4E866E",
"8X c #568871",
"9X c #568E74",
"0X c #4E9476",
"qX c #549678",
"wX c #529878",
"eX c #529B7B",
"rX c #549D7C",
"tX c #559F7D",
"yX c #54A380",
"uX c #56A682",
"iX c #56A683",
"pX c #59A482",
"aX c #56A883",
"sX c #58AA85",
"dX c #58AB85",
"fX c #5AAE88",
"gX c #5AAF88",
"hX c #5BAF88",
"jX c #5AB089",
"kX c #5AB28A",
"lX c #5CB38B",
"zX c #5CB48C",
"xX c #5CB78D",
"cX c #5DB88E",
"vX c #5EBA8F",
"bX c #5FBB90",
"nX c #5EBC91",
"mX c #5FBC91",
"MX c #5FBD91",
"NX c #60BD91",
"BX c #60BE92",
/* pixels */
"                                                                                                    ",
"                                                                                                    ",
"                                                                                                    ",
"                                                                                                    ",
"                                                                                                    ",
"                                                                                                    ",
"                                                  Q yX)                                             ",
"                                k k               6XuXl                                             ",
"                                  5X_ ( !       ^ NX'                                               ",
"                                  4.BXBXNXeX~   7.NX!   ( ' ` ^                                     ",
"                                  Q dXBXNXBXbXA gXMXh 0XBXBXNXBXjX[                                 ",
"                                q # D ,.wXMXBXBXNXNXBXBXBXBXBXBXjXs                                 ",
"                            # - g.%XZ...-.tXMXBXBXBXBXBXBX8.1.X.=.P.b q                             ",
"                          6 Z OX4X X9.MXBXBXBXBXBXBXBXBXBXzX7X@.@X4X4XM.6                           ",
"                        6 c.4X4X4X*.xXNXBXBXNXtXBXBX7X8XBXNXNXlX| {.4X4X/.d                         ",
"                      # P.4X4X2XJ.3.NXNXMXMX3.0.BXBXxXz 9XNXNXNXbX2.+.4X4X Xp                       ",
"                    6 S.4X4X4XE.{ q.iXlXsX;.k.;.NXNXBXO.A.>.sXbXqX} W.4X4X4X!.6                     ",
"                  - K 4X4X4X4X4X4X XC.&.V.XX4Xo.NXNXNX>.4X#XZ.&.P.1X4X4X4X4X4XE 6                   ",
"                  q &X4X4X4X4X4X4X4X4X4X4X4X4Xl.pXNXBX..4X4X2X4X4X4X4X4X4X4X4X&X6                   ",
"                6 M.4X4X4X4X4X4X4X4X4X4X4X4X4X4X$.gXNX$.4X4X4X4X4X4X4X4X4X4X4X4XY                   ",
"                - :X4X4X4X4X4X4X4X4X4X4X4X4X4X4X:X=.6.K.4X4X4X4X4X4X4X4X4X4X4X4XQ.6                 ",
"                H 4X4X4X4X4X4X4X4X4X4X4X4X4X4X4X4X4XK.2X4X4X4X4X4X4X4X4X4X4X4X4X2Xo                 ",
"              q S.4X4X4X4X4X4X4X4X4X4X4X4X4X4X4X4X4X4X4X4X4X4X4X4X4X4X4X4X4X4X4X4Xm                 ",
"              q _.4X4X4X4X4X4X4X4X4X4X4X4X4X4X4X4X4X4X4X4X4X4X4X4X4X4X4X4X4X4X4X4XF                 ",
"              6 @X4X4X4X4X4X4X4X4X4X4X4X4X4X4X4X4X4X4X4X4X4X4X4X4X4X4X4X4X4X:XG.4XY                 ",
"              . 1X4X4X4X4X4X4X4X4X4X4X4X4X4X4X4X4X4X4X4X4X4X4X4X4X4X4X4X4X4X4X4X4Xy.                ",
"              o :X4X4X4X4X4X4X4X4X4X4X4X4X4X4X4X4X4X4X4X4X4X4X4X4X4X4X4X4X4X:XN.4XR                 ",
"              u _.4X4X4X4X4X4X4X4X4X4X4X4X4X4X4X4X4X4X4X4X4X4X4X4X4X4X4X4X4X1X~.4XV                 ",
"              p H.4X4X4X4X4X4X4X4X4X4X4X4X4X4X4X4X4X4X4X4X4X4X4X4X4X4X4X4X4X/.1X4Xd                 ",
"                H 4X4X4X4X4X4X4X4X4X4X4X4X4X4X4X4X4X4X4X4X4X4X4X4X4X4X4X4X4Xr.4X|.#                 ",
"                6 :X4X4X4X4X4X4X4X4X4X4X4X4X4X4X4X4X4X4X4X4X4X4X4X4X4X4X4X@Xh.4Xd.<                 ",
"                q c.4X4X4X4X4X4X4X4X4X4X4X4X4X4X4X4X4X4X4X4X4X4X4X4X4X4X4Xp.@X:Xp                   ",
"                  p *X4X4X4X4X4X4X4X4X4X4X4X4X4X4X4X4X4X4X4X4X4X4X4X4X4X~.N.4Xg.-                   ",
"                  6 K 4X4X4X4X4X4X4X4X4X4X4X4X4X4X4X4X4X4X4X4X4X4X4X4XOXR 1X].#                     ",
"                    u x.4X4X4X4X4X4X4X4X4X4X4X4X4X4X4X4X4X4X4X4X4X4XOXY :X@Xg                       ",
"                      # F.4X4X4X4X4X4X4X4X4X4X4X4X4X4X4X4X4X4X4X4X!.E :X&Xb o                       ",
"                        o h.2X4X4X4X4X4X4X4X4X4X4X4X4X4X4X4X4X$Xp.N.4X].x 6                         ",
"                          6 B +X4X4X4X4X4X4X4X4X4X4X4X4X:XQ.r.g.@X4XH.-                             ",
"                            6 6 e.OX4X4X4X4X4X4X~.p.p.p.p.U.1X4XU.M -                               ",
"                                # # I T.:X4X4X4X4X4X4X4X4X|.z.x -                                   ",
"                                      d # g F E r.r.L B p o p                                       ",
"                                                                                                    ",
"                                                                                                    ",
"                                                                                                    ",
"                                                                                                    ",
"                                                                                                    ",
"                                                                                                    ",
"                                                                                                    ",
"                                                                                                    ",
"                                                                                                    "
};
