/* XPM */
static char *_fefc869dd774a118a632e6939dbb0e3l7UzjLeXJ7GikFff[] = {
/* columns rows colors chars-per-pixel */
"32 32 5 1 ",
"  c black",
". c gray20",
"X c #9C4A00",
"o c #CC6A14",
"O c #E5968A",
/* pixels */
"OOOOOOOOOOOOOOO.OOOOOOOOOOOOOOO.",
"Oooooooooooooo .. ooooooooooooo.",
"OooXoXoXXXoXo .  . XoXoXXXoXoXo.",
"OoXXXoXXXoXX .    . XoXXXoXXXXo.",
"OoXXXXoXXXo .      . XoXXXoXoXo.",
"OoXoXoXoXX .        . XoXXXoXoo.",
"ooooooooo .          . oooooooo.",
"      .  .            . .     . ",
"OOOOOOO ..            .. OOOOOOO",
"oooooo .                . oooooo",
"XXoXo .                  . XoXoX",
"XoXX .                    . XoXX",
"XXo .                      . XoX",
"XX .                        . Xo",
"o .                          . o",
".  .                        .   ",
"O .                          . .",
"O .                          . .",
"O .                          . .",
"O .                          . .",
"O .                          . .",
"O .                          . .",
"o  .                        .  .",
"  .                          .  ",
"O .                          . O",
"o .                          . o",
"X .                          . X",
"X .                          . X",
"X .                          . X",
"X .                          . o",
"o  .                        .  o",
". .                          .  "
};